# MagicaVoxel @ Ephtracy

# group
o iron_shovel

# material
mtllib shovel-0-iron_shovel.mtl
usemtl palette

# normals
vn -1 0 0
vn 1 0 0
vn 0 0 1
vn 0 0 -1
vn 0 -1 0
vn 0 1 0

# texcoords
vt 0.134766 0.5
vt 0.138672 0.5
vt 0.197266 0.5
vt 0.201172 0.5
vt 0.400391 0.5
vt 0.404297 0.5
vt 0.408203 0.5

# verts
v -0.6 0 0.5
v -0.6 0 0.4
v -0.6 0 0.3
v -0.6 0.1 0.5
v -0.6 0.1 0.4
v -0.6 0.1 0.3
v -0.5 0 0.6
v -0.5 0 0.5
v -0.5 0.1 0.6
v -0.5 0.1 0.5
v -0.4 0 0.3
v -0.4 0 0.2
v -0.4 0.1 0.3
v -0.4 0.1 0.2
v -0.3 0 0.2
v -0.3 0 0.1
v -0.3 0.1 0.2
v -0.3 0.1 0.1
v -0.2 0 0.1
v -0.2 0 5.96046e-08
v -0.2 0.1 0.1
v -0.2 0.1 5.96046e-08
v -0.1 0 5.96046e-08
v -0.1 0 -0.1
v -0.1 0.1 5.96046e-08
v -0.1 0.1 -0.1
v -5.96046e-08 0 -0.1
v -5.96046e-08 0 -0.2
v -5.96046e-08 0 -0.3
v -5.96046e-08 0 -0.4
v -5.96046e-08 0.1 -0.1
v -5.96046e-08 0.1 -0.2
v -5.96046e-08 0.1 -0.3
v -5.96046e-08 0.1 -0.4
v 0.1 0 -0.2
v 0.1 0 -0.3
v 0.1 0 -0.4
v 0.1 0 -0.5
v 0.1 0.1 -0.2
v 0.1 0.1 -0.3
v 0.1 0.1 -0.4
v 0.1 0.1 -0.5
v 0.2 0 -0.5
v 0.2 0 -0.6
v 0.2 0.1 -0.5
v 0.2 0.1 -0.6
v 0.3 0 5.96046e-08
v 0.3 0 -0.1
v 0.3 0 -0.6
v 0.3 0 -0.7
v 0.3 0.1 5.96046e-08
v 0.3 0.1 -0.1
v 0.3 0.1 -0.6
v 0.3 0.1 -0.7
v -0.3 0 0.6
v -0.3 0 0.4
v -0.3 0.1 0.6
v -0.3 0.1 0.4
v -0.2 0 0.4
v -0.2 0 0.3
v -0.2 0.1 0.4
v -0.2 0.1 0.3
v -0.1 0 0.3
v -0.1 0 0.2
v -0.1 0.1 0.3
v -0.1 0.1 0.2
v -5.96046e-08 0 0.2
v -5.96046e-08 0 0.1
v -5.96046e-08 0.1 0.2
v -5.96046e-08 0.1 0.1
v 0.1 0 0.1
v 0.1 0 5.96046e-08
v 0.1 0.1 0.1
v 0.1 0.1 5.96046e-08
v 0.2 0 5.96046e-08
v 0.2 0 -0.1
v 0.2 0.1 5.96046e-08
v 0.2 0.1 -0.1
v 0.4 0 5.96046e-08
v 0.4 0 -0.1
v 0.4 0.1 5.96046e-08
v 0.4 0.1 -0.1
v 0.5 0 -0.1
v 0.5 0 -0.2
v 0.5 0.1 -0.1
v 0.5 0.1 -0.2
v 0.6 0 -0.2
v 0.6 0 -0.3
v 0.6 0 -0.6
v 0.6 0 -0.7
v 0.6 0.1 -0.2
v 0.6 0.1 -0.3
v 0.6 0.1 -0.6
v 0.6 0.1 -0.7
v 0.7 0 -0.3
v 0.7 0 -0.6
v 0.7 0.1 -0.3
v 0.7 0.1 -0.6
v -0.5 0 0.6
v -0.5 0.1 0.6
v -0.4 0 0.6
v -0.4 0.1 0.6
v -0.3 0 0.6
v -0.3 0.1 0.6
v -0.6 0 0.5
v -0.6 0.1 0.5
v -0.5 0 0.5
v -0.5 0.1 0.5
v -0.3 0 0.4
v -0.3 0.1 0.4
v -0.2 0 0.4
v -0.2 0.1 0.4
v -0.2 0 0.3
v -0.2 0.1 0.3
v -0.1 0 0.3
v -0.1 0.1 0.3
v -0.1 0 0.2
v -0.1 0.1 0.2
v -5.96046e-08 0 0.2
v -5.96046e-08 0.1 0.2
v -5.96046e-08 0 0.1
v -5.96046e-08 0.1 0.1
v 0.1 0 0.1
v 0.1 0.1 0.1
v 0.1 0 5.96046e-08
v 0.1 0.1 5.96046e-08
v 0.2 0 5.96046e-08
v 0.2 0.1 5.96046e-08
v 0.3 0 5.96046e-08
v 0.3 0.1 5.96046e-08
v 0.4 0 5.96046e-08
v 0.4 0.1 5.96046e-08
v 0.2 0 -0.1
v 0.2 0.1 -0.1
v 0.3 0 -0.1
v 0.3 0.1 -0.1
v 0.4 0 -0.1
v 0.4 0.1 -0.1
v 0.5 0 -0.1
v 0.5 0.1 -0.1
v 0.5 0 -0.2
v 0.5 0.1 -0.2
v 0.6 0 -0.2
v 0.6 0.1 -0.2
v -5.96046e-08 0 -0.3
v -5.96046e-08 0.1 -0.3
v 0.1 0 -0.3
v 0.1 0.1 -0.3
v 0.6 0 -0.3
v 0.6 0.1 -0.3
v 0.7 0 -0.3
v 0.7 0.1 -0.3
v -0.6 0 0.3
v -0.6 0.1 0.3
v -0.5 0 0.3
v -0.5 0.1 0.3
v -0.4 0 0.3
v -0.4 0.1 0.3
v -0.4 0 0.2
v -0.4 0.1 0.2
v -0.3 0 0.2
v -0.3 0.1 0.2
v -0.3 0 0.1
v -0.3 0.1 0.1
v -0.2 0 0.1
v -0.2 0.1 0.1
v -0.2 0 5.96046e-08
v -0.2 0.1 5.96046e-08
v -0.1 0 5.96046e-08
v -0.1 0.1 5.96046e-08
v -0.1 0 -0.1
v -0.1 0.1 -0.1
v -5.96046e-08 0 -0.1
v -5.96046e-08 0.1 -0.1
v -5.96046e-08 0 -0.2
v -5.96046e-08 0.1 -0.2
v 0.1 0 -0.2
v 0.1 0.1 -0.2
v -5.96046e-08 0 -0.4
v -5.96046e-08 0.1 -0.4
v 0.1 0 -0.4
v 0.1 0.1 -0.4
v 0.1 0 -0.5
v 0.1 0.1 -0.5
v 0.2 0 -0.5
v 0.2 0.1 -0.5
v 0.2 0 -0.6
v 0.2 0.1 -0.6
v 0.3 0 -0.6
v 0.3 0.1 -0.6
v 0.6 0 -0.6
v 0.6 0.1 -0.6
v 0.7 0 -0.6
v 0.7 0.1 -0.6
v 0.3 0 -0.7
v 0.3 0.1 -0.7
v 0.6 0 -0.7
v 0.6 0.1 -0.7
v -0.5 0 0.6
v -0.4 0 0.6
v -0.3 0 0.6
v -0.6 0 0.5
v -0.5 0 0.5
v -0.4 0 0.5
v -0.6 0 0.4
v -0.5 0 0.4
v -0.4 0 0.4
v -0.3 0 0.4
v -0.2 0 0.4
v -0.6 0 0.3
v -0.5 0 0.3
v -0.4 0 0.3
v -0.3 0 0.3
v -0.2 0 0.3
v -0.1 0 0.3
v -0.4 0 0.2
v -0.3 0 0.2
v -0.2 0 0.2
v -0.1 0 0.2
v -5.96046e-08 0 0.2
v -0.3 0 0.1
v -0.2 0 0.1
v -0.1 0 0.1
v -5.96046e-08 0 0.1
v 0.1 0 0.1
v -0.2 0 5.96046e-08
v -0.1 0 5.96046e-08
v -5.96046e-08 0 5.96046e-08
v 0.1 0 5.96046e-08
v 0.2 0 5.96046e-08
v 0.3 0 5.96046e-08
v 0.4 0 5.96046e-08
v -0.1 0 -0.1
v -5.96046e-08 0 -0.1
v 0.1 0 -0.1
v 0.2 0 -0.1
v 0.3 0 -0.1
v 0.4 0 -0.1
v 0.5 0 -0.1
v -5.96046e-08 0 -0.2
v 0.1 0 -0.2
v 0.2 0 -0.2
v 0.3 0 -0.2
v 0.4 0 -0.2
v 0.5 0 -0.2
v 0.6 0 -0.2
v -5.96046e-08 0 -0.3
v 0.1 0 -0.3
v 0.2 0 -0.3
v 0.4 0 -0.3
v 0.5 0 -0.3
v 0.6 0 -0.3
v 0.7 0 -0.3
v -5.96046e-08 0 -0.4
v 0.1 0 -0.4
v 0.2 0 -0.4
v 0.3 0 -0.4
v 0.1 0 -0.5
v 0.2 0 -0.5
v 0.3 0 -0.5
v 0.5 0 -0.5
v 0.6 0 -0.5
v 0.2 0 -0.6
v 0.3 0 -0.6
v 0.5 0 -0.6
v 0.6 0 -0.6
v 0.7 0 -0.6
v 0.3 0 -0.7
v 0.6 0 -0.7
v -0.5 0.1 0.6
v -0.4 0.1 0.6
v -0.3 0.1 0.6
v -0.6 0.1 0.5
v -0.5 0.1 0.5
v -0.4 0.1 0.5
v -0.6 0.1 0.4
v -0.5 0.1 0.4
v -0.4 0.1 0.4
v -0.3 0.1 0.4
v -0.2 0.1 0.4
v -0.6 0.1 0.3
v -0.5 0.1 0.3
v -0.4 0.1 0.3
v -0.3 0.1 0.3
v -0.2 0.1 0.3
v -0.1 0.1 0.3
v -0.4 0.1 0.2
v -0.3 0.1 0.2
v -0.2 0.1 0.2
v -0.1 0.1 0.2
v -5.96046e-08 0.1 0.2
v -0.3 0.1 0.1
v -0.2 0.1 0.1
v -0.1 0.1 0.1
v -5.96046e-08 0.1 0.1
v 0.1 0.1 0.1
v -0.2 0.1 5.96046e-08
v -0.1 0.1 5.96046e-08
v -5.96046e-08 0.1 5.96046e-08
v 0.1 0.1 5.96046e-08
v 0.2 0.1 5.96046e-08
v 0.3 0.1 5.96046e-08
v 0.4 0.1 5.96046e-08
v -0.1 0.1 -0.1
v -5.96046e-08 0.1 -0.1
v 0.1 0.1 -0.1
v 0.2 0.1 -0.1
v 0.3 0.1 -0.1
v 0.4 0.1 -0.1
v 0.5 0.1 -0.1
v -5.96046e-08 0.1 -0.2
v 0.1 0.1 -0.2
v 0.2 0.1 -0.2
v 0.3 0.1 -0.2
v 0.4 0.1 -0.2
v 0.5 0.1 -0.2
v 0.6 0.1 -0.2
v -5.96046e-08 0.1 -0.3
v 0.1 0.1 -0.3
v 0.2 0.1 -0.3
v 0.4 0.1 -0.3
v 0.5 0.1 -0.3
v 0.6 0.1 -0.3
v 0.7 0.1 -0.3
v -5.96046e-08 0.1 -0.4
v 0.1 0.1 -0.4
v 0.2 0.1 -0.4
v 0.3 0.1 -0.4
v 0.1 0.1 -0.5
v 0.2 0.1 -0.5
v 0.3 0.1 -0.5
v 0.5 0.1 -0.5
v 0.6 0.1 -0.5
v 0.2 0.1 -0.6
v 0.3 0.1 -0.6
v 0.5 0.1 -0.6
v 0.6 0.1 -0.6
v 0.7 0.1 -0.6
v 0.3 0.1 -0.7
v 0.6 0.1 -0.7

# faces
f 4/3/1 2/3/1 1/3/1
f 5/2/1 3/2/1 2/2/1
f 5/3/1 2/3/1 4/3/1
f 6/2/1 3/2/1 5/2/1
f 9/3/1 8/3/1 7/3/1
f 10/3/1 8/3/1 9/3/1
f 13/3/1 12/3/1 11/3/1
f 14/3/1 12/3/1 13/3/1
f 17/3/1 16/3/1 15/3/1
f 18/3/1 16/3/1 17/3/1
f 21/3/1 20/3/1 19/3/1
f 22/3/1 20/3/1 21/3/1
f 25/3/1 24/3/1 23/3/1
f 26/3/1 24/3/1 25/3/1
f 31/3/1 28/3/1 27/3/1
f 32/3/1 28/3/1 31/3/1
f 33/7/1 30/7/1 29/7/1
f 34/7/1 30/7/1 33/7/1
f 39/3/1 36/3/1 35/3/1
f 40/3/1 36/3/1 39/3/1
f 41/7/1 38/7/1 37/7/1
f 42/7/1 38/7/1 41/7/1
f 45/7/1 44/7/1 43/7/1
f 46/7/1 44/7/1 45/7/1
f 51/7/1 48/7/1 47/7/1
f 52/7/1 48/7/1 51/7/1
f 53/7/1 50/7/1 49/7/1
f 54/7/1 50/7/1 53/7/1
f 55/2/2 56/2/2 57/2/2
f 57/2/2 56/2/2 58/2/2
f 59/2/2 60/2/2 61/2/2
f 61/2/2 60/2/2 62/2/2
f 63/2/2 64/2/2 65/2/2
f 65/2/2 64/2/2 66/2/2
f 67/2/2 68/2/2 69/2/2
f 69/2/2 68/2/2 70/2/2
f 71/2/2 72/2/2 73/2/2
f 73/2/2 72/2/2 74/2/2
f 75/2/2 76/2/2 77/2/2
f 77/2/2 76/2/2 78/2/2
f 79/7/2 80/7/2 81/7/2
f 81/7/2 80/7/2 82/7/2
f 83/7/2 84/7/2 85/7/2
f 85/7/2 84/7/2 86/7/2
f 87/7/2 88/7/2 91/7/2
f 91/7/2 88/7/2 92/7/2
f 89/7/2 90/7/2 93/7/2
f 93/7/2 90/7/2 94/7/2
f 95/7/2 96/7/2 97/7/2
f 97/7/2 96/7/2 98/7/2
f 101/3/3 100/3/3 99/3/3
f 102/3/3 100/3/3 101/3/3
f 103/2/3 102/2/3 101/2/3
f 104/2/3 102/2/3 103/2/3
f 107/3/3 106/3/3 105/3/3
f 108/3/3 106/3/3 107/3/3
f 111/2/3 110/2/3 109/2/3
f 112/2/3 110/2/3 111/2/3
f 115/2/3 114/2/3 113/2/3
f 116/2/3 114/2/3 115/2/3
f 119/2/3 118/2/3 117/2/3
f 120/2/3 118/2/3 119/2/3
f 123/2/3 122/2/3 121/2/3
f 124/2/3 122/2/3 123/2/3
f 127/2/3 126/2/3 125/2/3
f 128/2/3 126/2/3 127/2/3
f 131/7/3 130/7/3 129/7/3
f 132/7/3 130/7/3 131/7/3
f 135/2/3 134/2/3 133/2/3
f 136/2/3 134/2/3 135/2/3
f 139/7/3 138/7/3 137/7/3
f 140/7/3 138/7/3 139/7/3
f 143/7/3 142/7/3 141/7/3
f 144/7/3 142/7/3 143/7/3
f 147/7/3 146/7/3 145/7/3
f 148/7/3 146/7/3 147/7/3
f 151/7/3 150/7/3 149/7/3
f 152/7/3 150/7/3 151/7/3
f 153/2/4 154/2/4 155/2/4
f 155/2/4 154/2/4 156/2/4
f 155/3/4 156/3/4 157/3/4
f 157/3/4 156/3/4 158/3/4
f 159/3/4 160/3/4 161/3/4
f 161/3/4 160/3/4 162/3/4
f 163/3/4 164/3/4 165/3/4
f 165/3/4 164/3/4 166/3/4
f 167/3/4 168/3/4 169/3/4
f 169/3/4 168/3/4 170/3/4
f 171/3/4 172/3/4 173/3/4
f 173/3/4 172/3/4 174/3/4
f 175/3/4 176/3/4 177/3/4
f 177/3/4 176/3/4 178/3/4
f 179/7/4 180/7/4 181/7/4
f 181/7/4 180/7/4 182/7/4
f 183/7/4 184/7/4 185/7/4
f 185/7/4 184/7/4 186/7/4
f 187/7/4 188/7/4 189/7/4
f 189/7/4 188/7/4 190/7/4
f 191/7/4 192/7/4 193/7/4
f 193/7/4 192/7/4 194/7/4
f 195/7/4 196/7/4 197/7/4
f 197/7/4 196/7/4 198/7/4
f 203/3/5 200/3/5 199/3/5
f 204/2/5 201/2/5 200/2/5
f 204/3/5 200/3/5 203/3/5
f 205/3/5 203/3/5 202/3/5
f 206/4/5 204/4/5 203/4/5
f 206/3/5 203/3/5 205/3/5
f 207/2/5 201/2/5 204/2/5
f 207/4/5 204/4/5 206/4/5
f 208/2/5 201/2/5 207/2/5
f 210/2/5 206/2/5 205/2/5
f 211/3/5 207/3/5 206/3/5
f 211/2/5 206/2/5 210/2/5
f 212/4/5 208/4/5 207/4/5
f 212/3/5 207/3/5 211/3/5
f 213/2/5 209/2/5 208/2/5
f 213/4/5 208/4/5 212/4/5
f 214/2/5 209/2/5 213/2/5
f 216/3/5 213/3/5 212/3/5
f 217/1/5 214/1/5 213/1/5
f 217/3/5 213/3/5 216/3/5
f 218/2/5 215/2/5 214/2/5
f 218/1/5 214/1/5 217/1/5
f 219/2/5 215/2/5 218/2/5
f 221/3/5 218/3/5 217/3/5
f 222/4/5 219/4/5 218/4/5
f 222/3/5 218/3/5 221/3/5
f 223/2/5 220/2/5 219/2/5
f 223/4/5 219/4/5 222/4/5
f 224/2/5 220/2/5 223/2/5
f 226/3/5 223/3/5 222/3/5
f 227/1/5 224/1/5 223/1/5
f 227/3/5 223/3/5 226/3/5
f 228/2/5 225/2/5 224/2/5
f 228/1/5 224/1/5 227/1/5
f 229/2/5 225/2/5 228/2/5
f 233/3/5 228/3/5 227/3/5
f 234/4/5 229/4/5 228/4/5
f 234/3/5 228/3/5 233/3/5
f 235/2/5 230/2/5 229/2/5
f 235/4/5 229/4/5 234/4/5
f 236/2/5 230/2/5 235/2/5
f 237/7/5 232/7/5 231/7/5
f 238/7/5 232/7/5 237/7/5
f 240/3/5 235/3/5 234/3/5
f 241/4/5 236/4/5 235/4/5
f 241/3/5 235/3/5 240/3/5
f 242/2/5 237/2/5 236/2/5
f 242/4/5 236/4/5 241/4/5
f 243/6/5 238/6/5 237/6/5
f 243/2/5 237/2/5 242/2/5
f 244/7/5 239/7/5 238/7/5
f 244/6/5 238/6/5 243/6/5
f 245/7/5 239/7/5 244/7/5
f 248/3/5 242/3/5 241/3/5
f 249/5/5 243/5/5 242/5/5
f 249/5/5 244/5/5 243/5/5
f 249/3/5 242/3/5 248/3/5
f 250/6/5 245/6/5 244/6/5
f 250/5/5 244/5/5 249/5/5
f 251/7/5 246/7/5 245/7/5
f 251/6/5 245/6/5 250/6/5
f 252/7/5 246/7/5 251/7/5
f 254/7/5 248/7/5 247/7/5
f 255/6/5 249/6/5 248/6/5
f 255/7/5 248/7/5 254/7/5
f 256/5/5 250/5/5 249/5/5
f 256/6/5 249/6/5 255/6/5
f 256/5/5 251/5/5 250/5/5
f 257/5/5 251/5/5 256/5/5
f 258/7/5 256/7/5 255/7/5
f 259/6/5 257/6/5 256/6/5
f 259/7/5 256/7/5 258/7/5
f 260/5/5 251/5/5 257/5/5
f 260/6/5 257/6/5 259/6/5
f 261/6/5 252/6/5 251/6/5
f 261/5/5 251/5/5 260/5/5
f 262/7/5 253/7/5 252/7/5
f 262/6/5 252/6/5 261/6/5
f 263/7/5 260/7/5 259/7/5
f 264/6/5 261/6/5 260/6/5
f 264/7/5 260/7/5 263/7/5
f 265/5/5 262/5/5 261/5/5
f 265/6/5 261/6/5 264/6/5
f 266/7/5 253/7/5 262/7/5
f 266/5/5 262/5/5 265/5/5
f 267/7/5 253/7/5 266/7/5
f 268/7/5 265/7/5 264/7/5
f 268/7/5 266/7/5 265/7/5
f 269/7/5 266/7/5 268/7/5
f 270/3/6 271/3/6 274/3/6
f 271/2/6 272/2/6 275/2/6
f 274/3/6 271/3/6 275/3/6
f 273/3/6 274/3/6 276/3/6
f 274/4/6 275/4/6 277/4/6
f 276/3/6 274/3/6 277/3/6
f 275/2/6 272/2/6 278/2/6
f 277/4/6 275/4/6 278/4/6
f 278/2/6 272/2/6 279/2/6
f 276/2/6 277/2/6 281/2/6
f 277/3/6 278/3/6 282/3/6
f 281/2/6 277/2/6 282/2/6
f 278/4/6 279/4/6 283/4/6
f 282/3/6 278/3/6 283/3/6
f 279/2/6 280/2/6 284/2/6
f 283/4/6 279/4/6 284/4/6
f 284/2/6 280/2/6 285/2/6
f 283/3/6 284/3/6 287/3/6
f 284/1/6 285/1/6 288/1/6
f 287/3/6 284/3/6 288/3/6
f 285/2/6 286/2/6 289/2/6
f 288/1/6 285/1/6 289/1/6
f 289/2/6 286/2/6 290/2/6
f 288/3/6 289/3/6 292/3/6
f 289/4/6 290/4/6 293/4/6
f 292/3/6 289/3/6 293/3/6
f 290/2/6 291/2/6 294/2/6
f 293/4/6 290/4/6 294/4/6
f 294/2/6 291/2/6 295/2/6
f 293/3/6 294/3/6 297/3/6
f 294/1/6 295/1/6 298/1/6
f 297/3/6 294/3/6 298/3/6
f 295/2/6 296/2/6 299/2/6
f 298/1/6 295/1/6 299/1/6
f 299/2/6 296/2/6 300/2/6
f 298/3/6 299/3/6 304/3/6
f 299/4/6 300/4/6 305/4/6
f 304/3/6 299/3/6 305/3/6
f 300/2/6 301/2/6 306/2/6
f 305/4/6 300/4/6 306/4/6
f 306/2/6 301/2/6 307/2/6
f 302/7/6 303/7/6 308/7/6
f 308/7/6 303/7/6 309/7/6
f 305/3/6 306/3/6 311/3/6
f 306/4/6 307/4/6 312/4/6
f 311/3/6 306/3/6 312/3/6
f 307/2/6 308/2/6 313/2/6
f 312/4/6 307/4/6 313/4/6
f 308/6/6 309/6/6 314/6/6
f 313/2/6 308/2/6 314/2/6
f 309/7/6 310/7/6 315/7/6
f 314/6/6 309/6/6 315/6/6
f 315/7/6 310/7/6 316/7/6
f 312/3/6 313/3/6 319/3/6
f 313/5/6 314/5/6 320/5/6
f 314/5/6 315/5/6 320/5/6
f 319/3/6 313/3/6 320/3/6
f 315/6/6 316/6/6 321/6/6
f 320/5/6 315/5/6 321/5/6
f 316/7/6 317/7/6 322/7/6
f 321/6/6 316/6/6 322/6/6
f 322/7/6 317/7/6 323/7/6
f 318/7/6 319/7/6 325/7/6
f 319/6/6 320/6/6 326/6/6
f 325/7/6 319/7/6 326/7/6
f 320/5/6 321/5/6 327/5/6
f 326/6/6 320/6/6 327/6/6
f 321/5/6 322/5/6 327/5/6
f 327/5/6 322/5/6 328/5/6
f 326/7/6 327/7/6 329/7/6
f 327/6/6 328/6/6 330/6/6
f 329/7/6 327/7/6 330/7/6
f 328/5/6 322/5/6 331/5/6
f 330/6/6 328/6/6 331/6/6
f 322/6/6 323/6/6 332/6/6
f 331/5/6 322/5/6 332/5/6
f 323/7/6 324/7/6 333/7/6
f 332/6/6 323/6/6 333/6/6
f 330/7/6 331/7/6 334/7/6
f 331/6/6 332/6/6 335/6/6
f 334/7/6 331/7/6 335/7/6
f 332/5/6 333/5/6 336/5/6
f 335/6/6 332/6/6 336/6/6
f 333/7/6 324/7/6 337/7/6
f 336/5/6 333/5/6 337/5/6
f 337/7/6 324/7/6 338/7/6
f 335/7/6 336/7/6 339/7/6
f 336/7/6 337/7/6 339/7/6
f 339/7/6 337/7/6 340/7/6
