# MagicaVoxel @ Ephtracy

# group
o wood_axe

# material
mtllib axe-0-wood_axe.mtl
usemtl palette

# normals
vn -1 0 0
vn 1 0 0
vn 0 0 1
vn 0 0 -1
vn 0 -1 0
vn 0 1 0

# texcoords
vt 0.0683594 0.5
vt 0.134766 0.5
vt 0.138672 0.5
vt 0.197266 0.5
vt 0.201172 0.5
vt 0.400391 0.5
vt 0.404297 0.5
vt 0.408203 0.5

# verts
v -0.6 0 0.7
v -0.6 0 0.6
v -0.6 0 0.5
v -0.6 0.1 0.7
v -0.6 0.1 0.6
v -0.6 0.1 0.5
v -0.5 0 0.5
v -0.5 0 0.4
v -0.5 0.1 0.5
v -0.5 0.1 0.4
v -0.4 0 0.4
v -0.4 0 0.3
v -0.4 0.1 0.4
v -0.4 0.1 0.3
v -0.3 0 0.3
v -0.3 0 0.2
v -0.3 0.1 0.3
v -0.3 0.1 0.2
v -0.2 0 0.2
v -0.2 0 0.1
v -0.2 0 -0.2
v -0.2 0 -0.4
v -0.2 0.1 0.2
v -0.2 0.1 0.1
v -0.2 0.1 -0.2
v -0.2 0.1 -0.4
v -0.1 0 0.1
v -0.1 0 0
v -0.1 0 -0.1
v -0.1 0 -0.2
v -0.1 0 -0.4
v -0.1 0 -0.5
v -0.1 0.1 0.1
v -0.1 0.1 0
v -0.1 0.1 -0.1
v -0.1 0.1 -0.2
v -0.1 0.1 -0.4
v -0.1 0.1 -0.5
v -5.96046e-08 0 0
v -5.96046e-08 0 -0.1
v -5.96046e-08 0 -0.5
v -5.96046e-08 0 -0.6
v -5.96046e-08 0.1 0
v -5.96046e-08 0.1 -0.1
v -5.96046e-08 0.1 -0.5
v -5.96046e-08 0.1 -0.6
v 0.1 0 -0.6
v 0.1 0 -0.7
v 0.1 0.1 -0.6
v 0.1 0.1 -0.7
v 0.3 0 0.1
v 0.3 0 0
v 0.3 0.1 0.1
v 0.3 0.1 0
v -0.4 0 0.7
v -0.4 0 0.6
v -0.4 0.1 0.7
v -0.4 0.1 0.6
v -0.3 0 0.6
v -0.3 0 0.5
v -0.3 0.1 0.6
v -0.3 0.1 0.5
v -0.2 0 0.5
v -0.2 0 0.4
v -0.2 0.1 0.5
v -0.2 0.1 0.4
v -0.1 0 0.4
v -0.1 0 0.3
v -0.1 0.1 0.4
v -0.1 0.1 0.3
v -5.96046e-08 0 0.3
v -5.96046e-08 0 0.2
v -5.96046e-08 0.1 0.3
v -5.96046e-08 0.1 0.2
v 0.1 0 0.2
v 0.1 0 0.1
v 0.1 0.1 0.2
v 0.1 0.1 0.1
v 0.2 0 0.1
v 0.2 0 0
v 0.2 0.1 0.1
v 0.2 0.1 0
v 0.3 0 -0.6
v 0.3 0 -0.7
v 0.3 0.1 -0.6
v 0.3 0.1 -0.7
v 0.4 0 -0.4
v 0.4 0 -0.6
v 0.4 0.1 -0.4
v 0.4 0.1 -0.6
v 0.5 0 0.1
v 0.5 0 0
v 0.5 0 -0.2
v 0.5 0 -0.3
v 0.5 0 -0.4
v 0.5 0.1 0.1
v 0.5 0.1 0
v 0.5 0.1 -0.2
v 0.5 0.1 -0.3
v 0.5 0.1 -0.4
v 0.6 0 0
v 0.6 0 -0.2
v 0.6 0.1 0
v 0.6 0.1 -0.2
v -0.6 0 0.7
v -0.6 0.1 0.7
v -0.5 0 0.7
v -0.5 0.1 0.7
v -0.4 0 0.7
v -0.4 0.1 0.7
v -0.4 0 0.6
v -0.4 0.1 0.6
v -0.3 0 0.6
v -0.3 0.1 0.6
v -0.3 0 0.5
v -0.3 0.1 0.5
v -0.2 0 0.5
v -0.2 0.1 0.5
v -0.2 0 0.4
v -0.2 0.1 0.4
v -0.1 0 0.4
v -0.1 0.1 0.4
v -0.1 0 0.3
v -0.1 0.1 0.3
v -5.96046e-08 0 0.3
v -5.96046e-08 0.1 0.3
v -5.96046e-08 0 0.2
v -5.96046e-08 0.1 0.2
v 0.1 0 0.2
v 0.1 0.1 0.2
v 0.1 0 0.1
v 0.1 0.1 0.1
v 0.2 0 0.1
v 0.2 0.1 0.1
v 0.3 0 0.1
v 0.3 0.1 0.1
v 0.5 0 0.1
v 0.5 0.1 0.1
v 0.2 0 0
v 0.2 0.1 0
v 0.3 0 0
v 0.3 0.1 0
v 0.5 0 0
v 0.5 0.1 0
v 0.6 0 0
v 0.6 0.1 0
v -0.1 0 -0.1
v -0.1 0.1 -0.1
v -5.96046e-08 0 -0.1
v -5.96046e-08 0.1 -0.1
v -0.2 0 -0.2
v -0.2 0.1 -0.2
v -0.1 0 -0.2
v -0.1 0.1 -0.2
v -0.6 0 0.5
v -0.6 0.1 0.5
v -0.5 0 0.5
v -0.5 0.1 0.5
v -0.5 0 0.4
v -0.5 0.1 0.4
v -0.4 0 0.4
v -0.4 0.1 0.4
v -0.4 0 0.3
v -0.4 0.1 0.3
v -0.3 0 0.3
v -0.3 0.1 0.3
v -0.3 0 0.2
v -0.3 0.1 0.2
v -0.2 0 0.2
v -0.2 0.1 0.2
v -0.2 0 0.1
v -0.2 0.1 0.1
v -0.1 0 0.1
v -0.1 0.1 0.1
v -0.1 0 0
v -0.1 0.1 0
v -5.96046e-08 0 0
v -5.96046e-08 0.1 0
v 0.5 0 -0.2
v 0.5 0.1 -0.2
v 0.6 0 -0.2
v 0.6 0.1 -0.2
v -0.2 0 -0.4
v -0.2 0.1 -0.4
v -0.1 0 -0.4
v -0.1 0.1 -0.4
v 0.4 0 -0.4
v 0.4 0.1 -0.4
v 0.5 0 -0.4
v 0.5 0.1 -0.4
v -0.1 0 -0.5
v -0.1 0.1 -0.5
v -5.96046e-08 0 -0.5
v -5.96046e-08 0.1 -0.5
v -5.96046e-08 0 -0.6
v -5.96046e-08 0.1 -0.6
v 0.1 0 -0.6
v 0.1 0.1 -0.6
v 0.3 0 -0.6
v 0.3 0.1 -0.6
v 0.4 0 -0.6
v 0.4 0.1 -0.6
v 0.1 0 -0.7
v 0.1 0.1 -0.7
v 0.3 0 -0.7
v 0.3 0.1 -0.7
v -0.6 0 0.7
v -0.5 0 0.7
v -0.4 0 0.7
v -0.6 0 0.6
v -0.5 0 0.6
v -0.4 0 0.6
v -0.3 0 0.6
v -0.6 0 0.5
v -0.5 0 0.5
v -0.4 0 0.5
v -0.3 0 0.5
v -0.2 0 0.5
v -0.5 0 0.4
v -0.4 0 0.4
v -0.3 0 0.4
v -0.2 0 0.4
v -0.1 0 0.4
v -0.4 0 0.3
v -0.3 0 0.3
v -0.2 0 0.3
v -0.1 0 0.3
v -5.96046e-08 0 0.3
v -0.3 0 0.2
v -0.2 0 0.2
v -0.1 0 0.2
v -5.96046e-08 0 0.2
v 0.1 0 0.2
v -0.2 0 0.1
v -0.1 0 0.1
v -5.96046e-08 0 0.1
v 0.1 0 0.1
v 0.2 0 0.1
v 0.3 0 0.1
v 0.5 0 0.1
v -0.1 0 0
v -5.96046e-08 0 0
v 0.1 0 0
v 0.2 0 0
v 0.3 0 0
v 0.5 0 0
v 0.6 0 0
v -0.1 0 -0.1
v -5.96046e-08 0 -0.1
v 0.1 0 -0.1
v 0.2 0 -0.1
v 0.3 0 -0.1
v 0.4 0 -0.1
v -0.2 0 -0.2
v -0.1 0 -0.2
v -5.96046e-08 0 -0.2
v 0.1 0 -0.2
v 0.2 0 -0.2
v 0.3 0 -0.2
v 0.4 0 -0.2
v 0.5 0 -0.2
v 0.6 0 -0.2
v -5.96046e-08 0 -0.3
v 0.1 0 -0.3
v 0.2 0 -0.3
v 0.3 0 -0.3
v 0.4 0 -0.3
v 0.5 0 -0.3
v -0.2 0 -0.4
v -0.1 0 -0.4
v -5.96046e-08 0 -0.4
v 0.1 0 -0.4
v 0.2 0 -0.4
v 0.3 0 -0.4
v 0.4 0 -0.4
v 0.5 0 -0.4
v -0.1 0 -0.5
v -5.96046e-08 0 -0.5
v 0.1 0 -0.5
v 0.2 0 -0.5
v 0.3 0 -0.5
v -5.96046e-08 0 -0.6
v 0.1 0 -0.6
v 0.3 0 -0.6
v 0.4 0 -0.6
v 0.1 0 -0.7
v 0.3 0 -0.7
v -0.6 0.1 0.7
v -0.5 0.1 0.7
v -0.4 0.1 0.7
v -0.6 0.1 0.6
v -0.5 0.1 0.6
v -0.4 0.1 0.6
v -0.3 0.1 0.6
v -0.6 0.1 0.5
v -0.5 0.1 0.5
v -0.4 0.1 0.5
v -0.3 0.1 0.5
v -0.2 0.1 0.5
v -0.5 0.1 0.4
v -0.4 0.1 0.4
v -0.3 0.1 0.4
v -0.2 0.1 0.4
v -0.1 0.1 0.4
v -0.4 0.1 0.3
v -0.3 0.1 0.3
v -0.2 0.1 0.3
v -0.1 0.1 0.3
v -5.96046e-08 0.1 0.3
v -0.3 0.1 0.2
v -0.2 0.1 0.2
v -0.1 0.1 0.2
v -5.96046e-08 0.1 0.2
v 0.1 0.1 0.2
v -0.2 0.1 0.1
v -0.1 0.1 0.1
v -5.96046e-08 0.1 0.1
v 0.1 0.1 0.1
v 0.2 0.1 0.1
v 0.3 0.1 0.1
v 0.5 0.1 0.1
v -0.1 0.1 0
v -5.96046e-08 0.1 0
v 0.1 0.1 0
v 0.2 0.1 0
v 0.3 0.1 0
v 0.5 0.1 0
v 0.6 0.1 0
v -0.1 0.1 -0.1
v -5.96046e-08 0.1 -0.1
v 0.1 0.1 -0.1
v 0.2 0.1 -0.1
v 0.3 0.1 -0.1
v 0.4 0.1 -0.1
v -0.2 0.1 -0.2
v -0.1 0.1 -0.2
v -5.96046e-08 0.1 -0.2
v 0.1 0.1 -0.2
v 0.2 0.1 -0.2
v 0.3 0.1 -0.2
v 0.4 0.1 -0.2
v 0.5 0.1 -0.2
v 0.6 0.1 -0.2
v -5.96046e-08 0.1 -0.3
v 0.1 0.1 -0.3
v 0.2 0.1 -0.3
v 0.3 0.1 -0.3
v 0.4 0.1 -0.3
v 0.5 0.1 -0.3
v -0.2 0.1 -0.4
v -0.1 0.1 -0.4
v -5.96046e-08 0.1 -0.4
v 0.1 0.1 -0.4
v 0.2 0.1 -0.4
v 0.3 0.1 -0.4
v 0.4 0.1 -0.4
v 0.5 0.1 -0.4
v -0.1 0.1 -0.5
v -5.96046e-08 0.1 -0.5
v 0.1 0.1 -0.5
v 0.2 0.1 -0.5
v 0.3 0.1 -0.5
v -5.96046e-08 0.1 -0.6
v 0.1 0.1 -0.6
v 0.3 0.1 -0.6
v 0.4 0.1 -0.6
v 0.1 0.1 -0.7
v 0.3 0.1 -0.7

# faces
f 4/2/1 2/2/1 1/2/1
f 5/4/1 3/4/1 2/4/1
f 5/2/1 2/2/1 4/2/1
f 6/4/1 3/4/1 5/4/1
f 9/4/1 8/4/1 7/4/1
f 10/4/1 8/4/1 9/4/1
f 13/4/1 12/4/1 11/4/1
f 14/4/1 12/4/1 13/4/1
f 17/4/1 16/4/1 15/4/1
f 18/4/1 16/4/1 17/4/1
f 23/4/1 20/4/1 19/4/1
f 24/4/1 20/4/1 23/4/1
f 25/8/1 22/8/1 21/8/1
f 26/8/1 22/8/1 25/8/1
f 33/4/1 28/4/1 27/4/1
f 34/4/1 28/4/1 33/4/1
f 35/8/1 30/8/1 29/8/1
f 36/8/1 30/8/1 35/8/1
f 37/8/1 32/8/1 31/8/1
f 38/8/1 32/8/1 37/8/1
f 43/4/1 40/4/1 39/4/1
f 44/4/1 40/4/1 43/4/1
f 45/8/1 42/8/1 41/8/1
f 46/8/1 42/8/1 45/8/1
f 49/8/1 48/8/1 47/8/1
f 50/8/1 48/8/1 49/8/1
f 53/8/1 52/8/1 51/8/1
f 54/8/1 52/8/1 53/8/1
f 55/3/2 56/3/2 57/3/2
f 57/3/2 56/3/2 58/3/2
f 59/3/2 60/3/2 61/3/2
f 61/3/2 60/3/2 62/3/2
f 63/3/2 64/3/2 65/3/2
f 65/3/2 64/3/2 66/3/2
f 67/3/2 68/3/2 69/3/2
f 69/3/2 68/3/2 70/3/2
f 71/3/2 72/3/2 73/3/2
f 73/3/2 72/3/2 74/3/2
f 75/3/2 76/3/2 77/3/2
f 77/3/2 76/3/2 78/3/2
f 79/3/2 80/3/2 81/3/2
f 81/3/2 80/3/2 82/3/2
f 83/8/2 84/8/2 85/8/2
f 85/8/2 84/8/2 86/8/2
f 87/8/2 88/8/2 89/8/2
f 89/8/2 88/8/2 90/8/2
f 91/8/2 92/8/2 96/8/2
f 96/8/2 92/8/2 97/8/2
f 93/3/2 94/3/2 98/3/2
f 94/2/2 95/2/2 99/2/2
f 98/3/2 94/3/2 99/3/2
f 99/2/2 95/2/2 100/2/2
f 101/8/2 102/8/2 103/8/2
f 103/8/2 102/8/2 104/8/2
f 107/2/3 106/2/3 105/2/3
f 108/2/3 106/2/3 107/2/3
f 109/3/3 108/3/3 107/3/3
f 110/3/3 108/3/3 109/3/3
f 113/3/3 112/3/3 111/3/3
f 114/3/3 112/3/3 113/3/3
f 117/3/3 116/3/3 115/3/3
f 118/3/3 116/3/3 117/3/3
f 121/3/3 120/3/3 119/3/3
f 122/3/3 120/3/3 121/3/3
f 125/3/3 124/3/3 123/3/3
f 126/3/3 124/3/3 125/3/3
f 129/3/3 128/3/3 127/3/3
f 130/3/3 128/3/3 129/3/3
f 133/3/3 132/3/3 131/3/3
f 134/3/3 132/3/3 133/3/3
f 137/8/3 136/8/3 135/8/3
f 138/8/3 136/8/3 137/8/3
f 141/3/3 140/3/3 139/3/3
f 142/3/3 140/3/3 141/3/3
f 145/8/3 144/8/3 143/8/3
f 146/8/3 144/8/3 145/8/3
f 149/8/3 148/8/3 147/8/3
f 150/8/3 148/8/3 149/8/3
f 153/8/3 152/8/3 151/8/3
f 154/8/3 152/8/3 153/8/3
f 155/4/4 156/4/4 157/4/4
f 157/4/4 156/4/4 158/4/4
f 159/4/4 160/4/4 161/4/4
f 161/4/4 160/4/4 162/4/4
f 163/4/4 164/4/4 165/4/4
f 165/4/4 164/4/4 166/4/4
f 167/4/4 168/4/4 169/4/4
f 169/4/4 168/4/4 170/4/4
f 171/4/4 172/4/4 173/4/4
f 173/4/4 172/4/4 174/4/4
f 175/4/4 176/4/4 177/4/4
f 177/4/4 176/4/4 178/4/4
f 179/8/4 180/8/4 181/8/4
f 181/8/4 180/8/4 182/8/4
f 183/8/4 184/8/4 185/8/4
f 185/8/4 184/8/4 186/8/4
f 187/2/4 188/2/4 189/2/4
f 189/2/4 188/2/4 190/2/4
f 191/8/4 192/8/4 193/8/4
f 193/8/4 192/8/4 194/8/4
f 195/8/4 196/8/4 197/8/4
f 197/8/4 196/8/4 198/8/4
f 199/8/4 200/8/4 201/8/4
f 201/8/4 200/8/4 202/8/4
f 203/8/4 204/8/4 205/8/4
f 205/8/4 204/8/4 206/8/4
f 210/2/5 208/2/5 207/2/5
f 211/3/5 209/3/5 208/3/5
f 211/2/5 208/2/5 210/2/5
f 212/3/5 209/3/5 211/3/5
f 214/4/5 211/4/5 210/4/5
f 215/5/5 212/5/5 211/5/5
f 215/4/5 211/4/5 214/4/5
f 216/3/5 213/3/5 212/3/5
f 216/5/5 212/5/5 215/5/5
f 217/3/5 213/3/5 216/3/5
f 219/4/5 216/4/5 215/4/5
f 220/2/5 217/2/5 216/2/5
f 220/4/5 216/4/5 219/4/5
f 221/3/5 218/3/5 217/3/5
f 221/2/5 217/2/5 220/2/5
f 222/3/5 218/3/5 221/3/5
f 224/4/5 221/4/5 220/4/5
f 225/5/5 222/5/5 221/5/5
f 225/4/5 221/4/5 224/4/5
f 226/3/5 223/3/5 222/3/5
f 226/5/5 222/5/5 225/5/5
f 227/3/5 223/3/5 226/3/5
f 229/4/5 226/4/5 225/4/5
f 230/2/5 227/2/5 226/2/5
f 230/4/5 226/4/5 229/4/5
f 231/3/5 228/3/5 227/3/5
f 231/2/5 227/2/5 230/2/5
f 232/3/5 228/3/5 231/3/5
f 234/4/5 231/4/5 230/4/5
f 235/2/5 232/2/5 231/2/5
f 235/4/5 231/4/5 234/4/5
f 236/3/5 233/3/5 232/3/5
f 236/2/5 232/2/5 235/2/5
f 237/3/5 233/3/5 236/3/5
f 241/4/5 236/4/5 235/4/5
f 242/5/5 237/5/5 236/5/5
f 242/4/5 236/4/5 241/4/5
f 243/3/5 238/3/5 237/3/5
f 243/5/5 237/5/5 242/5/5
f 244/3/5 238/3/5 243/3/5
f 245/8/5 240/8/5 239/8/5
f 246/8/5 240/8/5 245/8/5
f 249/4/5 243/4/5 242/4/5
f 250/2/5 244/2/5 243/2/5
f 250/4/5 243/4/5 249/4/5
f 251/3/5 245/3/5 244/3/5
f 251/2/5 244/2/5 250/2/5
f 252/2/5 246/2/5 245/2/5
f 252/3/5 245/3/5 251/3/5
f 253/2/5 246/2/5 252/2/5
f 255/8/5 249/8/5 248/8/5
f 255/8/5 250/8/5 249/8/5
f 256/8/5 250/8/5 255/8/5
f 257/4/5 251/4/5 250/4/5
f 257/8/5 250/8/5 256/8/5
f 258/2/5 252/2/5 251/2/5
f 258/4/5 251/4/5 257/4/5
f 259/1/5 253/1/5 252/1/5
f 259/2/5 252/2/5 258/2/5
f 260/2/5 246/2/5 253/2/5
f 260/1/5 253/1/5 259/1/5
f 261/8/5 247/8/5 246/8/5
f 261/2/5 246/2/5 260/2/5
f 262/8/5 247/8/5 261/8/5
f 263/7/5 256/7/5 255/7/5
f 263/6/5 257/6/5 256/6/5
f 264/2/5 258/2/5 257/2/5
f 264/6/5 257/6/5 263/6/5
f 265/1/5 259/1/5 258/1/5
f 265/2/5 258/2/5 264/2/5
f 266/2/5 260/2/5 259/2/5
f 266/1/5 259/1/5 265/1/5
f 267/3/5 261/3/5 260/3/5
f 267/2/5 260/2/5 266/2/5
f 268/3/5 261/3/5 267/3/5
f 269/8/5 255/8/5 254/8/5
f 270/7/5 263/7/5 255/7/5
f 270/8/5 255/8/5 269/8/5
f 271/2/5 264/2/5 263/2/5
f 271/7/5 263/7/5 270/7/5
f 271/2/5 265/2/5 264/2/5
f 271/2/5 266/2/5 265/2/5
f 272/2/5 266/2/5 271/2/5
f 273/2/5 266/2/5 272/2/5
f 274/4/5 267/4/5 266/4/5
f 274/2/5 266/2/5 273/2/5
f 275/2/5 268/2/5 267/2/5
f 275/4/5 267/4/5 274/4/5
f 276/2/5 268/2/5 275/2/5
f 277/8/5 271/8/5 270/8/5
f 278/7/5 272/7/5 271/7/5
f 278/8/5 271/8/5 277/8/5
f 279/2/5 273/2/5 272/2/5
f 279/7/5 272/7/5 278/7/5
f 280/6/5 274/6/5 273/6/5
f 280/2/5 273/2/5 279/2/5
f 281/8/5 275/8/5 274/8/5
f 281/6/5 274/6/5 280/6/5
f 282/8/5 279/8/5 278/8/5
f 283/7/5 281/7/5 280/7/5
f 283/8/5 279/8/5 282/8/5
f 283/7/5 280/7/5 279/7/5
f 284/8/5 275/8/5 281/8/5
f 284/7/5 281/7/5 283/7/5
f 285/8/5 275/8/5 284/8/5
f 286/8/5 284/8/5 283/8/5
f 287/8/5 284/8/5 286/8/5
f 288/2/6 289/2/6 291/2/6
f 289/3/6 290/3/6 292/3/6
f 291/2/6 289/2/6 292/2/6
f 292/3/6 290/3/6 293/3/6
f 291/4/6 292/4/6 295/4/6
f 292/5/6 293/5/6 296/5/6
f 295/4/6 292/4/6 296/4/6
f 293/3/6 294/3/6 297/3/6
f 296/5/6 293/5/6 297/5/6
f 297/3/6 294/3/6 298/3/6
f 296/4/6 297/4/6 300/4/6
f 297/2/6 298/2/6 301/2/6
f 300/4/6 297/4/6 301/4/6
f 298/3/6 299/3/6 302/3/6
f 301/2/6 298/2/6 302/2/6
f 302/3/6 299/3/6 303/3/6
f 301/4/6 302/4/6 305/4/6
f 302/5/6 303/5/6 306/5/6
f 305/4/6 302/4/6 306/4/6
f 303/3/6 304/3/6 307/3/6
f 306/5/6 303/5/6 307/5/6
f 307/3/6 304/3/6 308/3/6
f 306/4/6 307/4/6 310/4/6
f 307/2/6 308/2/6 311/2/6
f 310/4/6 307/4/6 311/4/6
f 308/3/6 309/3/6 312/3/6
f 311/2/6 308/2/6 312/2/6
f 312/3/6 309/3/6 313/3/6
f 311/4/6 312/4/6 315/4/6
f 312/2/6 313/2/6 316/2/6
f 315/4/6 312/4/6 316/4/6
f 313/3/6 314/3/6 317/3/6
f 316/2/6 313/2/6 317/2/6
f 317/3/6 314/3/6 318/3/6
f 316/4/6 317/4/6 322/4/6
f 317/5/6 318/5/6 323/5/6
f 322/4/6 317/4/6 323/4/6
f 318/3/6 319/3/6 324/3/6
f 323/5/6 318/5/6 324/5/6
f 324/3/6 319/3/6 325/3/6
f 320/8/6 321/8/6 326/8/6
f 326/8/6 321/8/6 327/8/6
f 323/4/6 324/4/6 330/4/6
f 324/2/6 325/2/6 331/2/6
f 330/4/6 324/4/6 331/4/6
f 325/3/6 326/3/6 332/3/6
f 331/2/6 325/2/6 332/2/6
f 326/2/6 327/2/6 333/2/6
f 332/3/6 326/3/6 333/3/6
f 333/2/6 327/2/6 334/2/6
f 329/8/6 330/8/6 336/8/6
f 330/8/6 331/8/6 336/8/6
f 336/8/6 331/8/6 337/8/6
f 331/4/6 332/4/6 338/4/6
f 337/8/6 331/8/6 338/8/6
f 332/2/6 333/2/6 339/2/6
f 338/4/6 332/4/6 339/4/6
f 333/1/6 334/1/6 340/1/6
f 339/2/6 333/2/6 340/2/6
f 334/2/6 327/2/6 341/2/6
f 340/1/6 334/1/6 341/1/6
f 327/8/6 328/8/6 342/8/6
f 341/2/6 327/2/6 342/2/6
f 342/8/6 328/8/6 343/8/6
f 336/7/6 337/7/6 344/7/6
f 337/6/6 338/6/6 344/6/6
f 338/2/6 339/2/6 345/2/6
f 344/6/6 338/6/6 345/6/6
f 339/1/6 340/1/6 346/1/6
f 345/2/6 339/2/6 346/2/6
f 340/2/6 341/2/6 347/2/6
f 346/1/6 340/1/6 347/1/6
f 341/3/6 342/3/6 348/3/6
f 347/2/6 341/2/6 348/2/6
f 348/3/6 342/3/6 349/3/6
f 335/8/6 336/8/6 350/8/6
f 336/7/6 344/7/6 351/7/6
f 350/8/6 336/8/6 351/8/6
f 344/2/6 345/2/6 352/2/6
f 351/7/6 344/7/6 352/7/6
f 345/2/6 346/2/6 352/2/6
f 346/2/6 347/2/6 352/2/6
f 352/2/6 347/2/6 353/2/6
f 353/2/6 347/2/6 354/2/6
f 347/4/6 348/4/6 355/4/6
f 354/2/6 347/2/6 355/2/6
f 348/2/6 349/2/6 356/2/6
f 355/4/6 348/4/6 356/4/6
f 356/2/6 349/2/6 357/2/6
f 351/8/6 352/8/6 358/8/6
f 352/7/6 353/7/6 359/7/6
f 358/8/6 352/8/6 359/8/6
f 353/2/6 354/2/6 360/2/6
f 359/7/6 353/7/6 360/7/6
f 354/6/6 355/6/6 361/6/6
f 360/2/6 354/2/6 361/2/6
f 355/8/6 356/8/6 362/8/6
f 361/6/6 355/6/6 362/6/6
f 359/8/6 360/8/6 363/8/6
f 361/7/6 362/7/6 364/7/6
f 363/8/6 360/8/6 364/8/6
f 360/7/6 361/7/6 364/7/6
f 362/8/6 356/8/6 365/8/6
f 364/7/6 362/7/6 365/7/6
f 365/8/6 356/8/6 366/8/6
f 364/8/6 365/8/6 367/8/6
f 367/8/6 365/8/6 368/8/6
