# MagicaVoxel @ Ephtracy

# group
o wood_pickaxe

# material
mtllib pickaxe-0-wood_pickaxe.mtl
usemtl palette

# normals
vn -1 0 0
vn 1 0 0
vn 0 0 1
vn 0 0 -1
vn 0 -1 0
vn 0 1 0

# texcoords
vt 0.134766 0.5
vt 0.138672 0.5
vt 0.197266 0.5
vt 0.201172 0.5
vt 0.400391 0.5
vt 0.404297 0.5
vt 0.408203 0.5

# verts
v -0.6 0 0.6
v -0.6 0 0.5
v -0.6 0 0.4
v -0.6 0.1 0.6
v -0.6 0.1 0.5
v -0.6 0.1 0.4
v -0.5 0 0.4
v -0.5 0 0.3
v -0.5 0.1 0.4
v -0.5 0.1 0.3
v -0.4 0 0.3
v -0.4 0 0.2
v -0.4 0.1 0.3
v -0.4 0.1 0.2
v -0.3 0 0.2
v -0.3 0 0.1
v -0.3 0 -0.5
v -0.3 0 -0.6
v -0.3 0.1 0.2
v -0.3 0.1 0.1
v -0.3 0.1 -0.5
v -0.3 0.1 -0.6
v -0.2 0 0.1
v -0.2 0 5.96046e-08
v -0.2 0 -0.4
v -0.2 0 -0.5
v -0.2 0 -0.6
v -0.2 0 -0.7
v -0.2 0.1 0.1
v -0.2 0.1 5.96046e-08
v -0.2 0.1 -0.4
v -0.2 0.1 -0.5
v -0.2 0.1 -0.6
v -0.2 0.1 -0.7
v -0.1 0 5.96046e-08
v -0.1 0 -0.1
v -0.1 0.1 5.96046e-08
v -0.1 0.1 -0.1
v -5.96046e-08 0 -0.1
v -5.96046e-08 0 -0.2
v -5.96046e-08 0.1 -0.1
v -5.96046e-08 0.1 -0.2
v 0.1 0 -0.2
v 0.1 0 -0.3
v 0.1 0.1 -0.2
v 0.1 0.1 -0.3
v 0.2 0 -0.3
v 0.2 0 -0.4
v 0.2 0.1 -0.3
v 0.2 0.1 -0.4
v 0.4 0 0.2
v 0.4 0 -0.2
v 0.4 0.1 0.2
v 0.4 0.1 -0.2
v 0.5 0 0.3
v 0.5 0 0.2
v 0.5 0.1 0.3
v 0.5 0.1 0.2
v -0.4 0 0.6
v -0.4 0 0.5
v -0.4 0.1 0.6
v -0.4 0.1 0.5
v -0.3 0 0.5
v -0.3 0 0.4
v -0.3 0.1 0.5
v -0.3 0.1 0.4
v -0.2 0 0.4
v -0.2 0 0.3
v -0.2 0.1 0.4
v -0.2 0.1 0.3
v -0.1 0 0.3
v -0.1 0 0.2
v -0.1 0.1 0.3
v -0.1 0.1 0.2
v -5.96046e-08 0 0.2
v -5.96046e-08 0 0.1
v -5.96046e-08 0.1 0.2
v -5.96046e-08 0.1 0.1
v 0.1 0 0.1
v 0.1 0 5.96046e-08
v 0.1 0.1 0.1
v 0.1 0.1 5.96046e-08
v 0.2 0 5.96046e-08
v 0.2 0 -0.1
v 0.2 0.1 5.96046e-08
v 0.2 0.1 -0.1
v 0.3 0 -0.1
v 0.3 0 -0.2
v 0.3 0 -0.6
v 0.3 0 -0.7
v 0.3 0.1 -0.1
v 0.3 0.1 -0.2
v 0.3 0.1 -0.6
v 0.3 0.1 -0.7
v 0.6 0 0.3
v 0.6 0 0.2
v 0.6 0 -0.3
v 0.6 0 -0.4
v 0.6 0 -0.5
v 0.6 0 -0.6
v 0.6 0.1 0.3
v 0.6 0.1 0.2
v 0.6 0.1 -0.3
v 0.6 0.1 -0.4
v 0.6 0.1 -0.5
v 0.6 0.1 -0.6
v 0.7 0 0.2
v 0.7 0 -0.3
v 0.7 0.1 0.2
v 0.7 0.1 -0.3
v -0.6 0 0.6
v -0.6 0.1 0.6
v -0.5 0 0.6
v -0.5 0.1 0.6
v -0.4 0 0.6
v -0.4 0.1 0.6
v -0.4 0 0.5
v -0.4 0.1 0.5
v -0.3 0 0.5
v -0.3 0.1 0.5
v -0.3 0 0.4
v -0.3 0.1 0.4
v -0.2 0 0.4
v -0.2 0.1 0.4
v -0.2 0 0.3
v -0.2 0.1 0.3
v -0.1 0 0.3
v -0.1 0.1 0.3
v 0.5 0 0.3
v 0.5 0.1 0.3
v 0.6 0 0.3
v 0.6 0.1 0.3
v -0.1 0 0.2
v -0.1 0.1 0.2
v -5.96046e-08 0 0.2
v -5.96046e-08 0.1 0.2
v 0.4 0 0.2
v 0.4 0.1 0.2
v 0.5 0 0.2
v 0.5 0.1 0.2
v 0.6 0 0.2
v 0.6 0.1 0.2
v 0.7 0 0.2
v 0.7 0.1 0.2
v -5.96046e-08 0 0.1
v -5.96046e-08 0.1 0.1
v 0.1 0 0.1
v 0.1 0.1 0.1
v 0.1 0 5.96046e-08
v 0.1 0.1 5.96046e-08
v 0.2 0 5.96046e-08
v 0.2 0.1 5.96046e-08
v 0.2 0 -0.1
v 0.2 0.1 -0.1
v 0.3 0 -0.1
v 0.3 0.1 -0.1
v 0.3 0 -0.2
v 0.3 0.1 -0.2
v 0.4 0 -0.2
v 0.4 0.1 -0.2
v -0.2 0 -0.4
v -0.2 0.1 -0.4
v 0.2 0 -0.4
v 0.2 0.1 -0.4
v -0.3 0 -0.5
v -0.3 0.1 -0.5
v -0.2 0 -0.5
v -0.2 0.1 -0.5
v -0.6 0 0.4
v -0.6 0.1 0.4
v -0.5 0 0.4
v -0.5 0.1 0.4
v -0.5 0 0.3
v -0.5 0.1 0.3
v -0.4 0 0.3
v -0.4 0.1 0.3
v -0.4 0 0.2
v -0.4 0.1 0.2
v -0.3 0 0.2
v -0.3 0.1 0.2
v -0.3 0 0.1
v -0.3 0.1 0.1
v -0.2 0 0.1
v -0.2 0.1 0.1
v -0.2 0 5.96046e-08
v -0.2 0.1 5.96046e-08
v -0.1 0 5.96046e-08
v -0.1 0.1 5.96046e-08
v -0.1 0 -0.1
v -0.1 0.1 -0.1
v -5.96046e-08 0 -0.1
v -5.96046e-08 0.1 -0.1
v -5.96046e-08 0 -0.2
v -5.96046e-08 0.1 -0.2
v 0.1 0 -0.2
v 0.1 0.1 -0.2
v 0.1 0 -0.3
v 0.1 0.1 -0.3
v 0.2 0 -0.3
v 0.2 0.1 -0.3
v 0.6 0 -0.3
v 0.6 0.1 -0.3
v 0.7 0 -0.3
v 0.7 0.1 -0.3
v -0.3 0 -0.6
v -0.3 0.1 -0.6
v -0.2 0 -0.6
v -0.2 0.1 -0.6
v 0.3 0 -0.6
v 0.3 0.1 -0.6
v 0.4 0 -0.6
v 0.4 0.1 -0.6
v 0.5 0 -0.6
v 0.5 0.1 -0.6
v 0.6 0 -0.6
v 0.6 0.1 -0.6
v -0.2 0 -0.7
v -0.2 0.1 -0.7
v 0.3 0 -0.7
v 0.3 0.1 -0.7
v -0.6 0 0.6
v -0.5 0 0.6
v -0.4 0 0.6
v -0.6 0 0.5
v -0.5 0 0.5
v -0.4 0 0.5
v -0.3 0 0.5
v -0.6 0 0.4
v -0.5 0 0.4
v -0.4 0 0.4
v -0.3 0 0.4
v -0.2 0 0.4
v -0.5 0 0.3
v -0.4 0 0.3
v -0.3 0 0.3
v -0.2 0 0.3
v -0.1 0 0.3
v 0.5 0 0.3
v 0.6 0 0.3
v -0.4 0 0.2
v -0.3 0 0.2
v -0.2 0 0.2
v -0.1 0 0.2
v -5.96046e-08 0 0.2
v 0.4 0 0.2
v 0.5 0 0.2
v 0.6 0 0.2
v 0.7 0 0.2
v -0.3 0 0.1
v -0.2 0 0.1
v -0.1 0 0.1
v -5.96046e-08 0 0.1
v 0.1 0 0.1
v 0.5 0 0.1
v 0.6 0 0.1
v -0.2 0 5.96046e-08
v -0.1 0 5.96046e-08
v -5.96046e-08 0 5.96046e-08
v 0.1 0 5.96046e-08
v 0.2 0 5.96046e-08
v 0.5 0 5.96046e-08
v 0.6 0 5.96046e-08
v -0.1 0 -0.1
v -5.96046e-08 0 -0.1
v 0.1 0 -0.1
v 0.2 0 -0.1
v 0.3 0 -0.1
v -5.96046e-08 0 -0.2
v 0.1 0 -0.2
v 0.2 0 -0.2
v 0.3 0 -0.2
v 0.4 0 -0.2
v 0.5 0 -0.2
v 0.6 0 -0.2
v 0.1 0 -0.3
v 0.2 0 -0.3
v 0.3 0 -0.3
v 0.4 0 -0.3
v 0.5 0 -0.3
v 0.6 0 -0.3
v 0.7 0 -0.3
v -0.2 0 -0.4
v 0.2 0 -0.4
v 0.3 0 -0.4
v 0.4 0 -0.4
v 0.5 0 -0.4
v 0.6 0 -0.4
v -0.3 0 -0.5
v -0.2 0 -0.5
v -0.1 0 -0.5
v -5.96046e-08 0 -0.5
v 0.2 0 -0.5
v 0.3 0 -0.5
v 0.4 0 -0.5
v 0.5 0 -0.5
v 0.6 0 -0.5
v -0.3 0 -0.6
v -0.2 0 -0.6
v -0.1 0 -0.6
v -5.96046e-08 0 -0.6
v 0.2 0 -0.6
v 0.3 0 -0.6
v 0.4 0 -0.6
v 0.5 0 -0.6
v 0.6 0 -0.6
v -0.2 0 -0.7
v 0.3 0 -0.7
v -0.6 0.1 0.6
v -0.5 0.1 0.6
v -0.4 0.1 0.6
v -0.6 0.1 0.5
v -0.5 0.1 0.5
v -0.4 0.1 0.5
v -0.3 0.1 0.5
v -0.6 0.1 0.4
v -0.5 0.1 0.4
v -0.4 0.1 0.4
v -0.3 0.1 0.4
v -0.2 0.1 0.4
v -0.5 0.1 0.3
v -0.4 0.1 0.3
v -0.3 0.1 0.3
v -0.2 0.1 0.3
v -0.1 0.1 0.3
v 0.5 0.1 0.3
v 0.6 0.1 0.3
v -0.4 0.1 0.2
v -0.3 0.1 0.2
v -0.2 0.1 0.2
v -0.1 0.1 0.2
v -5.96046e-08 0.1 0.2
v 0.4 0.1 0.2
v 0.5 0.1 0.2
v 0.6 0.1 0.2
v 0.7 0.1 0.2
v -0.3 0.1 0.1
v -0.2 0.1 0.1
v -0.1 0.1 0.1
v -5.96046e-08 0.1 0.1
v 0.1 0.1 0.1
v 0.5 0.1 0.1
v 0.6 0.1 0.1
v -0.2 0.1 5.96046e-08
v -0.1 0.1 5.96046e-08
v -5.96046e-08 0.1 5.96046e-08
v 0.1 0.1 5.96046e-08
v 0.2 0.1 5.96046e-08
v 0.5 0.1 5.96046e-08
v 0.6 0.1 5.96046e-08
v -0.1 0.1 -0.1
v -5.96046e-08 0.1 -0.1
v 0.1 0.1 -0.1
v 0.2 0.1 -0.1
v 0.3 0.1 -0.1
v -5.96046e-08 0.1 -0.2
v 0.1 0.1 -0.2
v 0.2 0.1 -0.2
v 0.3 0.1 -0.2
v 0.4 0.1 -0.2
v 0.5 0.1 -0.2
v 0.6 0.1 -0.2
v 0.1 0.1 -0.3
v 0.2 0.1 -0.3
v 0.3 0.1 -0.3
v 0.4 0.1 -0.3
v 0.5 0.1 -0.3
v 0.6 0.1 -0.3
v 0.7 0.1 -0.3
v -0.2 0.1 -0.4
v 0.2 0.1 -0.4
v 0.3 0.1 -0.4
v 0.4 0.1 -0.4
v 0.5 0.1 -0.4
v 0.6 0.1 -0.4
v -0.3 0.1 -0.5
v -0.2 0.1 -0.5
v -0.1 0.1 -0.5
v -5.96046e-08 0.1 -0.5
v 0.2 0.1 -0.5
v 0.3 0.1 -0.5
v 0.4 0.1 -0.5
v 0.5 0.1 -0.5
v 0.6 0.1 -0.5
v -0.3 0.1 -0.6
v -0.2 0.1 -0.6
v -0.1 0.1 -0.6
v -5.96046e-08 0.1 -0.6
v 0.2 0.1 -0.6
v 0.3 0.1 -0.6
v 0.4 0.1 -0.6
v 0.5 0.1 -0.6
v 0.6 0.1 -0.6
v -0.2 0.1 -0.7
v 0.3 0.1 -0.7

# faces
f 4/1/1 2/1/1 1/1/1
f 5/3/1 3/3/1 2/3/1
f 5/1/1 2/1/1 4/1/1
f 6/3/1 3/3/1 5/3/1
f 9/3/1 8/3/1 7/3/1
f 10/3/1 8/3/1 9/3/1
f 13/3/1 12/3/1 11/3/1
f 14/3/1 12/3/1 13/3/1
f 19/3/1 16/3/1 15/3/1
f 20/3/1 16/3/1 19/3/1
f 21/7/1 18/7/1 17/7/1
f 22/7/1 18/7/1 21/7/1
f 29/3/1 24/3/1 23/3/1
f 30/3/1 24/3/1 29/3/1
f 31/7/1 26/7/1 25/7/1
f 32/7/1 26/7/1 31/7/1
f 33/7/1 28/7/1 27/7/1
f 34/7/1 28/7/1 33/7/1
f 37/3/1 36/3/1 35/3/1
f 38/3/1 36/3/1 37/3/1
f 41/3/1 40/3/1 39/3/1
f 42/3/1 40/3/1 41/3/1
f 45/3/1 44/3/1 43/3/1
f 46/3/1 44/3/1 45/3/1
f 49/3/1 48/3/1 47/3/1
f 50/3/1 48/3/1 49/3/1
f 53/7/1 52/7/1 51/7/1
f 54/7/1 52/7/1 53/7/1
f 57/7/1 56/7/1 55/7/1
f 58/7/1 56/7/1 57/7/1
f 59/2/2 60/2/2 61/2/2
f 61/2/2 60/2/2 62/2/2
f 63/2/2 64/2/2 65/2/2
f 65/2/2 64/2/2 66/2/2
f 67/2/2 68/2/2 69/2/2
f 69/2/2 68/2/2 70/2/2
f 71/2/2 72/2/2 73/2/2
f 73/2/2 72/2/2 74/2/2
f 75/2/2 76/2/2 77/2/2
f 77/2/2 76/2/2 78/2/2
f 79/2/2 80/2/2 81/2/2
f 81/2/2 80/2/2 82/2/2
f 83/2/2 84/2/2 85/2/2
f 85/2/2 84/2/2 86/2/2
f 87/2/2 88/2/2 91/2/2
f 91/2/2 88/2/2 92/2/2
f 89/7/2 90/7/2 93/7/2
f 93/7/2 90/7/2 94/7/2
f 95/7/2 96/7/2 101/7/2
f 101/7/2 96/7/2 102/7/2
f 97/7/2 98/7/2 103/7/2
f 98/2/2 99/2/2 104/2/2
f 103/7/2 98/7/2 104/7/2
f 99/1/2 100/1/2 105/1/2
f 104/2/2 99/2/2 105/2/2
f 105/1/2 100/1/2 106/1/2
f 107/7/2 108/7/2 109/7/2
f 109/7/2 108/7/2 110/7/2
f 113/1/3 112/1/3 111/1/3
f 114/1/3 112/1/3 113/1/3
f 115/2/3 114/2/3 113/2/3
f 116/2/3 114/2/3 115/2/3
f 119/2/3 118/2/3 117/2/3
f 120/2/3 118/2/3 119/2/3
f 123/2/3 122/2/3 121/2/3
f 124/2/3 122/2/3 123/2/3
f 127/2/3 126/2/3 125/2/3
f 128/2/3 126/2/3 127/2/3
f 131/7/3 130/7/3 129/7/3
f 132/7/3 130/7/3 131/7/3
f 135/2/3 134/2/3 133/2/3
f 136/2/3 134/2/3 135/2/3
f 139/7/3 138/7/3 137/7/3
f 140/7/3 138/7/3 139/7/3
f 143/7/3 142/7/3 141/7/3
f 144/7/3 142/7/3 143/7/3
f 147/2/3 146/2/3 145/2/3
f 148/2/3 146/2/3 147/2/3
f 151/2/3 150/2/3 149/2/3
f 152/2/3 150/2/3 151/2/3
f 155/2/3 154/2/3 153/2/3
f 156/2/3 154/2/3 155/2/3
f 159/2/3 158/2/3 157/2/3
f 160/2/3 158/2/3 159/2/3
f 163/7/3 162/7/3 161/7/3
f 164/7/3 162/7/3 163/7/3
f 167/7/3 166/7/3 165/7/3
f 168/7/3 166/7/3 167/7/3
f 169/3/4 170/3/4 171/3/4
f 171/3/4 170/3/4 172/3/4
f 173/3/4 174/3/4 175/3/4
f 175/3/4 174/3/4 176/3/4
f 177/3/4 178/3/4 179/3/4
f 179/3/4 178/3/4 180/3/4
f 181/3/4 182/3/4 183/3/4
f 183/3/4 182/3/4 184/3/4
f 185/3/4 186/3/4 187/3/4
f 187/3/4 186/3/4 188/3/4
f 189/3/4 190/3/4 191/3/4
f 191/3/4 190/3/4 192/3/4
f 193/3/4 194/3/4 195/3/4
f 195/3/4 194/3/4 196/3/4
f 197/3/4 198/3/4 199/3/4
f 199/3/4 198/3/4 200/3/4
f 201/7/4 202/7/4 203/7/4
f 203/7/4 202/7/4 204/7/4
f 205/7/4 206/7/4 207/7/4
f 207/7/4 206/7/4 208/7/4
f 209/7/4 210/7/4 211/7/4
f 211/7/4 210/7/4 212/7/4
f 211/3/4 212/3/4 213/3/4
f 213/3/4 212/3/4 214/3/4
f 213/1/4 214/1/4 215/1/4
f 215/1/4 214/1/4 216/1/4
f 217/7/4 218/7/4 219/7/4
f 219/7/4 218/7/4 220/7/4
f 224/1/5 222/1/5 221/1/5
f 225/2/5 223/2/5 222/2/5
f 225/1/5 222/1/5 224/1/5
f 226/2/5 223/2/5 225/2/5
f 228/3/5 225/3/5 224/3/5
f 229/4/5 226/4/5 225/4/5
f 229/3/5 225/3/5 228/3/5
f 230/2/5 227/2/5 226/2/5
f 230/4/5 226/4/5 229/4/5
f 231/2/5 227/2/5 230/2/5
f 233/3/5 230/3/5 229/3/5
f 234/1/5 231/1/5 230/1/5
f 234/3/5 230/3/5 233/3/5
f 235/2/5 232/2/5 231/2/5
f 235/1/5 231/1/5 234/1/5
f 236/2/5 232/2/5 235/2/5
f 240/3/5 235/3/5 234/3/5
f 241/4/5 236/4/5 235/4/5
f 241/3/5 235/3/5 240/3/5
f 242/2/5 237/2/5 236/2/5
f 242/4/5 236/4/5 241/4/5
f 243/2/5 237/2/5 242/2/5
f 246/7/5 239/7/5 238/7/5
f 247/7/5 239/7/5 246/7/5
f 249/3/5 242/3/5 241/3/5
f 250/1/5 243/1/5 242/1/5
f 250/3/5 242/3/5 249/3/5
f 251/2/5 244/2/5 243/2/5
f 251/1/5 243/1/5 250/1/5
f 252/2/5 244/2/5 251/2/5
f 254/6/5 247/6/5 246/6/5
f 254/7/5 246/7/5 245/7/5
f 255/7/5 248/7/5 247/7/5
f 255/6/5 247/6/5 254/6/5
f 256/3/5 251/3/5 250/3/5
f 257/4/5 252/4/5 251/4/5
f 257/3/5 251/3/5 256/3/5
f 258/2/5 253/2/5 252/2/5
f 258/4/5 252/4/5 257/4/5
f 259/2/5 253/2/5 258/2/5
f 261/7/5 254/7/5 245/7/5
f 261/5/5 255/5/5 254/5/5
f 262/7/5 248/7/5 255/7/5
f 262/5/5 255/5/5 261/5/5
f 263/3/5 258/3/5 257/3/5
f 264/1/5 259/1/5 258/1/5
f 264/3/5 258/3/5 263/3/5
f 265/2/5 260/2/5 259/2/5
f 265/1/5 259/1/5 264/1/5
f 266/2/5 260/2/5 265/2/5
f 268/3/5 265/3/5 264/3/5
f 269/4/5 266/4/5 265/4/5
f 269/3/5 265/3/5 268/3/5
f 270/2/5 267/2/5 266/2/5
f 270/4/5 266/4/5 269/4/5
f 271/2/5 267/2/5 270/2/5
f 272/7/5 261/7/5 245/7/5
f 273/1/5 262/1/5 261/1/5
f 273/7/5 261/7/5 272/7/5
f 274/7/5 248/7/5 262/7/5
f 274/1/5 262/1/5 273/1/5
f 275/3/5 270/3/5 269/3/5
f 276/1/5 271/1/5 270/1/5
f 276/3/5 270/3/5 275/3/5
f 277/2/5 272/2/5 271/2/5
f 277/1/5 271/1/5 276/1/5
f 278/1/5 273/1/5 272/1/5
f 278/2/5 272/2/5 277/2/5
f 279/5/5 274/5/5 273/5/5
f 279/1/5 273/1/5 278/1/5
f 280/7/5 248/7/5 274/7/5
f 280/5/5 274/5/5 279/5/5
f 281/7/5 248/7/5 280/7/5
f 283/3/5 277/3/5 276/3/5
f 284/5/5 278/5/5 277/5/5
f 284/3/5 277/3/5 283/3/5
f 285/1/5 279/1/5 278/1/5
f 285/5/5 278/5/5 284/5/5
f 286/7/5 280/7/5 279/7/5
f 286/1/5 279/1/5 285/1/5
f 287/7/5 280/7/5 286/7/5
f 289/7/5 283/7/5 282/7/5
f 290/7/5 283/7/5 289/7/5
f 291/7/5 283/7/5 290/7/5
f 292/1/5 284/1/5 283/1/5
f 292/7/5 283/7/5 291/7/5
f 292/1/5 285/1/5 284/1/5
f 293/1/5 285/1/5 292/1/5
f 294/4/5 286/4/5 285/4/5
f 294/1/5 285/1/5 293/1/5
f 295/2/5 287/2/5 286/2/5
f 295/4/5 286/4/5 294/4/5
f 296/2/5 287/2/5 295/2/5
f 297/7/5 289/7/5 288/7/5
f 298/6/5 290/6/5 289/6/5
f 298/7/5 289/7/5 297/7/5
f 299/5/5 291/5/5 290/5/5
f 299/6/5 290/6/5 298/6/5
f 300/1/5 292/1/5 291/1/5
f 300/5/5 291/5/5 299/5/5
f 301/5/5 293/5/5 292/5/5
f 301/1/5 292/1/5 300/1/5
f 302/7/5 294/7/5 293/7/5
f 302/5/5 293/5/5 301/5/5
f 303/3/5 295/3/5 294/3/5
f 303/7/5 294/7/5 302/7/5
f 304/1/5 296/1/5 295/1/5
f 304/3/5 295/3/5 303/3/5
f 305/1/5 296/1/5 304/1/5
f 306/7/5 300/7/5 299/7/5
f 306/7/5 302/7/5 301/7/5
f 306/7/5 299/7/5 298/7/5
f 306/7/5 301/7/5 300/7/5
f 307/7/5 302/7/5 306/7/5
f 308/1/6 309/1/6 311/1/6
f 309/2/6 310/2/6 312/2/6
f 311/1/6 309/1/6 312/1/6
f 312/2/6 310/2/6 313/2/6
f 311/3/6 312/3/6 315/3/6
f 312/4/6 313/4/6 316/4/6
f 315/3/6 312/3/6 316/3/6
f 313/2/6 314/2/6 317/2/6
f 316/4/6 313/4/6 317/4/6
f 317/2/6 314/2/6 318/2/6
f 316/3/6 317/3/6 320/3/6
f 317/1/6 318/1/6 321/1/6
f 320/3/6 317/3/6 321/3/6
f 318/2/6 319/2/6 322/2/6
f 321/1/6 318/1/6 322/1/6
f 322/2/6 319/2/6 323/2/6
f 321/3/6 322/3/6 327/3/6
f 322/4/6 323/4/6 328/4/6
f 327/3/6 322/3/6 328/3/6
f 323/2/6 324/2/6 329/2/6
f 328/4/6 323/4/6 329/4/6
f 329/2/6 324/2/6 330/2/6
f 325/7/6 326/7/6 333/7/6
f 333/7/6 326/7/6 334/7/6
f 328/3/6 329/3/6 336/3/6
f 329/1/6 330/1/6 337/1/6
f 336/3/6 329/3/6 337/3/6
f 330/2/6 331/2/6 338/2/6
f 337/1/6 330/1/6 338/1/6
f 338/2/6 331/2/6 339/2/6
f 333/6/6 334/6/6 341/6/6
f 332/7/6 333/7/6 341/7/6
f 334/7/6 335/7/6 342/7/6
f 341/6/6 334/6/6 342/6/6
f 337/3/6 338/3/6 343/3/6
f 338/4/6 339/4/6 344/4/6
f 343/3/6 338/3/6 344/3/6
f 339/2/6 340/2/6 345/2/6
f 344/4/6 339/4/6 345/4/6
f 345/2/6 340/2/6 346/2/6
f 332/7/6 341/7/6 348/7/6
f 341/5/6 342/5/6 348/5/6
f 342/7/6 335/7/6 349/7/6
f 348/5/6 342/5/6 349/5/6
f 344/3/6 345/3/6 350/3/6
f 345/1/6 346/1/6 351/1/6
f 350/3/6 345/3/6 351/3/6
f 346/2/6 347/2/6 352/2/6
f 351/1/6 346/1/6 352/1/6
f 352/2/6 347/2/6 353/2/6
f 351/3/6 352/3/6 355/3/6
f 352/4/6 353/4/6 356/4/6
f 355/3/6 352/3/6 356/3/6
f 353/2/6 354/2/6 357/2/6
f 356/4/6 353/4/6 357/4/6
f 357/2/6 354/2/6 358/2/6
f 332/7/6 348/7/6 359/7/6
f 348/1/6 349/1/6 360/1/6
f 359/7/6 348/7/6 360/7/6
f 349/7/6 335/7/6 361/7/6
f 360/1/6 349/1/6 361/1/6
f 356/3/6 357/3/6 362/3/6
f 357/1/6 358/1/6 363/1/6
f 362/3/6 357/3/6 363/3/6
f 358/2/6 359/2/6 364/2/6
f 363/1/6 358/1/6 364/1/6
f 359/1/6 360/1/6 365/1/6
f 364/2/6 359/2/6 365/2/6
f 360/5/6 361/5/6 366/5/6
f 365/1/6 360/1/6 366/1/6
f 361/7/6 335/7/6 367/7/6
f 366/5/6 361/5/6 367/5/6
f 367/7/6 335/7/6 368/7/6
f 363/3/6 364/3/6 370/3/6
f 364/5/6 365/5/6 371/5/6
f 370/3/6 364/3/6 371/3/6
f 365/1/6 366/1/6 372/1/6
f 371/5/6 365/5/6 372/5/6
f 366/7/6 367/7/6 373/7/6
f 372/1/6 366/1/6 373/1/6
f 373/7/6 367/7/6 374/7/6
f 369/7/6 370/7/6 376/7/6
f 376/7/6 370/7/6 377/7/6
f 377/7/6 370/7/6 378/7/6
f 370/1/6 371/1/6 379/1/6
f 378/7/6 370/7/6 379/7/6
f 371/1/6 372/1/6 379/1/6
f 379/1/6 372/1/6 380/1/6
f 372/4/6 373/4/6 381/4/6
f 380/1/6 372/1/6 381/1/6
f 373/2/6 374/2/6 382/2/6
f 381/4/6 373/4/6 382/4/6
f 382/2/6 374/2/6 383/2/6
f 375/7/6 376/7/6 384/7/6
f 376/6/6 377/6/6 385/6/6
f 384/7/6 376/7/6 385/7/6
f 377/5/6 378/5/6 386/5/6
f 385/6/6 377/6/6 386/6/6
f 378/1/6 379/1/6 387/1/6
f 386/5/6 378/5/6 387/5/6
f 379/5/6 380/5/6 388/5/6
f 387/1/6 379/1/6 388/1/6
f 380/7/6 381/7/6 389/7/6
f 388/5/6 380/5/6 389/5/6
f 381/3/6 382/3/6 390/3/6
f 389/7/6 381/7/6 390/7/6
f 382/1/6 383/1/6 391/1/6
f 390/3/6 382/3/6 391/3/6
f 391/1/6 383/1/6 392/1/6
f 386/7/6 387/7/6 393/7/6
f 388/7/6 389/7/6 393/7/6
f 385/7/6 386/7/6 393/7/6
f 387/7/6 388/7/6 393/7/6
f 393/7/6 389/7/6 394/7/6
