# MagicaVoxel @ Ephtracy

# group
o diamond_hoe

# material
mtllib hoe-0-diamond_hoe.mtl
usemtl palette

# normals
vn -1 0 0
vn 1 0 0
vn 0 0 1
vn 0 0 -1
vn 0 -1 0
vn 0 1 0

# texcoords
vt 0.134766 0.5
vt 0.138672 0.5
vt 0.197266 0.5
vt 0.201172 0.5
vt 0.400391 0.5
vt 0.404297 0.5
vt 0.408203 0.5

# verts
v -0.6 0 0.7
v -0.6 0 0.6
v -0.6 0 0.5
v -0.6 0.1 0.7
v -0.6 0.1 0.6
v -0.6 0.1 0.5
v -0.5 0 0.5
v -0.5 0 0.4
v -0.5 0.1 0.5
v -0.5 0.1 0.4
v -0.4 0 0.4
v -0.4 0 0.3
v -0.4 0.1 0.4
v -0.4 0.1 0.3
v -0.3 0 0.3
v -0.3 0 0.2
v -0.3 0.1 0.3
v -0.3 0.1 0.2
v -0.2 0 0.2
v -0.2 0 0.1
v -0.2 0 -0.5
v -0.2 0 -0.6
v -0.2 0.1 0.2
v -0.2 0.1 0.1
v -0.2 0.1 -0.5
v -0.2 0.1 -0.6
v -0.1 0 0.1
v -0.1 0 0
v -0.1 0 -0.4
v -0.1 0 -0.5
v -0.1 0 -0.6
v -0.1 0 -0.7
v -0.1 0.1 0.1
v -0.1 0.1 0
v -0.1 0.1 -0.4
v -0.1 0.1 -0.5
v -0.1 0.1 -0.6
v -0.1 0.1 -0.7
v -5.96046e-08 0 0
v -5.96046e-08 0 -0.1
v -5.96046e-08 0.1 0
v -5.96046e-08 0.1 -0.1
v 0.1 0 -0.1
v 0.1 0 -0.2
v 0.1 0 -0.3
v 0.1 0 -0.4
v 0.1 0.1 -0.1
v 0.1 0.1 -0.2
v 0.1 0.1 -0.3
v 0.1 0.1 -0.4
v 0.2 0 -0.2
v 0.2 0 -0.3
v 0.2 0.1 -0.2
v 0.2 0.1 -0.3
v -0.4 0 0.7
v -0.4 0 0.6
v -0.4 0.1 0.7
v -0.4 0.1 0.6
v -0.3 0 0.6
v -0.3 0 0.5
v -0.3 0.1 0.6
v -0.3 0.1 0.5
v -0.2 0 0.5
v -0.2 0 0.4
v -0.2 0.1 0.5
v -0.2 0.1 0.4
v -0.1 0 0.4
v -0.1 0 0.3
v -0.1 0.1 0.4
v -0.1 0.1 0.3
v -5.96046e-08 0 0.3
v -5.96046e-08 0 0.2
v -5.96046e-08 0.1 0.3
v -5.96046e-08 0.1 0.2
v 0.1 0 0.2
v 0.1 0 0.1
v 0.1 0.1 0.2
v 0.1 0.1 0.1
v 0.2 0 0.1
v 0.2 0 0
v 0.2 0 -0.6
v 0.2 0 -0.7
v 0.2 0.1 0.1
v 0.2 0.1 0
v 0.2 0.1 -0.6
v 0.2 0.1 -0.7
v 0.3 0 0
v 0.3 0 -0.1
v 0.3 0 -0.5
v 0.3 0 -0.6
v 0.3 0.1 0
v 0.3 0.1 -0.1
v 0.3 0.1 -0.5
v 0.3 0.1 -0.6
v 0.5 0 -0.1
v 0.5 0 -0.2
v 0.5 0.1 -0.1
v 0.5 0.1 -0.2
v 0.6 0 -0.2
v 0.6 0 -0.3
v 0.6 0 -0.4
v 0.6 0 -0.5
v 0.6 0.1 -0.2
v 0.6 0.1 -0.3
v 0.6 0.1 -0.4
v 0.6 0.1 -0.5
v -0.6 0 0.7
v -0.6 0.1 0.7
v -0.5 0 0.7
v -0.5 0.1 0.7
v -0.4 0 0.7
v -0.4 0.1 0.7
v -0.4 0 0.6
v -0.4 0.1 0.6
v -0.3 0 0.6
v -0.3 0.1 0.6
v -0.3 0 0.5
v -0.3 0.1 0.5
v -0.2 0 0.5
v -0.2 0.1 0.5
v -0.2 0 0.4
v -0.2 0.1 0.4
v -0.1 0 0.4
v -0.1 0.1 0.4
v -0.1 0 0.3
v -0.1 0.1 0.3
v -5.96046e-08 0 0.3
v -5.96046e-08 0.1 0.3
v -5.96046e-08 0 0.2
v -5.96046e-08 0.1 0.2
v 0.1 0 0.2
v 0.1 0.1 0.2
v 0.1 0 0.1
v 0.1 0.1 0.1
v 0.2 0 0.1
v 0.2 0.1 0.1
v 0.2 0 0
v 0.2 0.1 0
v 0.3 0 0
v 0.3 0.1 0
v 0.3 0 -0.1
v 0.3 0.1 -0.1
v 0.4 0 -0.1
v 0.4 0.1 -0.1
v 0.5 0 -0.1
v 0.5 0.1 -0.1
v 0.5 0 -0.2
v 0.5 0.1 -0.2
v 0.6 0 -0.2
v 0.6 0.1 -0.2
v 0.1 0 -0.3
v 0.1 0.1 -0.3
v 0.2 0 -0.3
v 0.2 0.1 -0.3
v -0.1 0 -0.4
v -0.1 0.1 -0.4
v 0.1 0 -0.4
v 0.1 0.1 -0.4
v -0.2 0 -0.5
v -0.2 0.1 -0.5
v -0.1 0 -0.5
v -0.1 0.1 -0.5
v -0.6 0 0.5
v -0.6 0.1 0.5
v -0.5 0 0.5
v -0.5 0.1 0.5
v -0.5 0 0.4
v -0.5 0.1 0.4
v -0.4 0 0.4
v -0.4 0.1 0.4
v -0.4 0 0.3
v -0.4 0.1 0.3
v -0.3 0 0.3
v -0.3 0.1 0.3
v -0.3 0 0.2
v -0.3 0.1 0.2
v -0.2 0 0.2
v -0.2 0.1 0.2
v -0.2 0 0.1
v -0.2 0.1 0.1
v -0.1 0 0.1
v -0.1 0.1 0.1
v -0.1 0 0
v -0.1 0.1 0
v -5.96046e-08 0 0
v -5.96046e-08 0.1 0
v -5.96046e-08 0 -0.1
v -5.96046e-08 0.1 -0.1
v 0.1 0 -0.1
v 0.1 0.1 -0.1
v 0.1 0 -0.2
v 0.1 0.1 -0.2
v 0.2 0 -0.2
v 0.2 0.1 -0.2
v 0.3 0 -0.5
v 0.3 0.1 -0.5
v 0.4 0 -0.5
v 0.4 0.1 -0.5
v 0.5 0 -0.5
v 0.5 0.1 -0.5
v 0.6 0 -0.5
v 0.6 0.1 -0.5
v -0.2 0 -0.6
v -0.2 0.1 -0.6
v -0.1 0 -0.6
v -0.1 0.1 -0.6
v 0.2 0 -0.6
v 0.2 0.1 -0.6
v 0.3 0 -0.6
v 0.3 0.1 -0.6
v -0.1 0 -0.7
v -0.1 0.1 -0.7
v 0.2 0 -0.7
v 0.2 0.1 -0.7
v -0.6 0 0.7
v -0.5 0 0.7
v -0.4 0 0.7
v -0.6 0 0.6
v -0.5 0 0.6
v -0.4 0 0.6
v -0.3 0 0.6
v -0.6 0 0.5
v -0.5 0 0.5
v -0.4 0 0.5
v -0.3 0 0.5
v -0.2 0 0.5
v -0.5 0 0.4
v -0.4 0 0.4
v -0.3 0 0.4
v -0.2 0 0.4
v -0.1 0 0.4
v -0.4 0 0.3
v -0.3 0 0.3
v -0.2 0 0.3
v -0.1 0 0.3
v -5.96046e-08 0 0.3
v -0.3 0 0.2
v -0.2 0 0.2
v -0.1 0 0.2
v -5.96046e-08 0 0.2
v 0.1 0 0.2
v -0.2 0 0.1
v -0.1 0 0.1
v -5.96046e-08 0 0.1
v 0.1 0 0.1
v 0.2 0 0.1
v -0.1 0 0
v -5.96046e-08 0 0
v 0.1 0 0
v 0.2 0 0
v 0.3 0 0
v -5.96046e-08 0 -0.1
v 0.1 0 -0.1
v 0.2 0 -0.1
v 0.3 0 -0.1
v 0.4 0 -0.1
v 0.5 0 -0.1
v 0.1 0 -0.2
v 0.2 0 -0.2
v 0.3 0 -0.2
v 0.4 0 -0.2
v 0.5 0 -0.2
v 0.6 0 -0.2
v 0.1 0 -0.3
v 0.2 0 -0.3
v 0.3 0 -0.3
v 0.4 0 -0.3
v 0.5 0 -0.3
v 0.6 0 -0.3
v -0.1 0 -0.4
v 0.1 0 -0.4
v 0.2 0 -0.4
v 0.3 0 -0.4
v 0.4 0 -0.4
v 0.5 0 -0.4
v 0.6 0 -0.4
v -0.2 0 -0.5
v -0.1 0 -0.5
v -5.96046e-08 0 -0.5
v 0.1 0 -0.5
v 0.2 0 -0.5
v 0.3 0 -0.5
v 0.4 0 -0.5
v 0.5 0 -0.5
v 0.6 0 -0.5
v -0.2 0 -0.6
v -0.1 0 -0.6
v -5.96046e-08 0 -0.6
v 0.2 0 -0.6
v 0.3 0 -0.6
v -0.1 0 -0.7
v 0.2 0 -0.7
v -0.6 0.1 0.7
v -0.5 0.1 0.7
v -0.4 0.1 0.7
v -0.6 0.1 0.6
v -0.5 0.1 0.6
v -0.4 0.1 0.6
v -0.3 0.1 0.6
v -0.6 0.1 0.5
v -0.5 0.1 0.5
v -0.4 0.1 0.5
v -0.3 0.1 0.5
v -0.2 0.1 0.5
v -0.5 0.1 0.4
v -0.4 0.1 0.4
v -0.3 0.1 0.4
v -0.2 0.1 0.4
v -0.1 0.1 0.4
v -0.4 0.1 0.3
v -0.3 0.1 0.3
v -0.2 0.1 0.3
v -0.1 0.1 0.3
v -5.96046e-08 0.1 0.3
v -0.3 0.1 0.2
v -0.2 0.1 0.2
v -0.1 0.1 0.2
v -5.96046e-08 0.1 0.2
v 0.1 0.1 0.2
v -0.2 0.1 0.1
v -0.1 0.1 0.1
v -5.96046e-08 0.1 0.1
v 0.1 0.1 0.1
v 0.2 0.1 0.1
v -0.1 0.1 0
v -5.96046e-08 0.1 0
v 0.1 0.1 0
v 0.2 0.1 0
v 0.3 0.1 0
v -5.96046e-08 0.1 -0.1
v 0.1 0.1 -0.1
v 0.2 0.1 -0.1
v 0.3 0.1 -0.1
v 0.4 0.1 -0.1
v 0.5 0.1 -0.1
v 0.1 0.1 -0.2
v 0.2 0.1 -0.2
v 0.3 0.1 -0.2
v 0.4 0.1 -0.2
v 0.5 0.1 -0.2
v 0.6 0.1 -0.2
v 0.1 0.1 -0.3
v 0.2 0.1 -0.3
v 0.3 0.1 -0.3
v 0.4 0.1 -0.3
v 0.5 0.1 -0.3
v 0.6 0.1 -0.3
v -0.1 0.1 -0.4
v 0.1 0.1 -0.4
v 0.2 0.1 -0.4
v 0.3 0.1 -0.4
v 0.4 0.1 -0.4
v 0.5 0.1 -0.4
v 0.6 0.1 -0.4
v -0.2 0.1 -0.5
v -0.1 0.1 -0.5
v -5.96046e-08 0.1 -0.5
v 0.1 0.1 -0.5
v 0.2 0.1 -0.5
v 0.3 0.1 -0.5
v 0.4 0.1 -0.5
v 0.5 0.1 -0.5
v 0.6 0.1 -0.5
v -0.2 0.1 -0.6
v -0.1 0.1 -0.6
v -5.96046e-08 0.1 -0.6
v 0.2 0.1 -0.6
v 0.3 0.1 -0.6
v -0.1 0.1 -0.7
v 0.2 0.1 -0.7

# faces
f 4/1/1 2/1/1 1/1/1
f 5/3/1 3/3/1 2/3/1
f 5/1/1 2/1/1 4/1/1
f 6/3/1 3/3/1 5/3/1
f 9/3/1 8/3/1 7/3/1
f 10/3/1 8/3/1 9/3/1
f 13/3/1 12/3/1 11/3/1
f 14/3/1 12/3/1 13/3/1
f 17/3/1 16/3/1 15/3/1
f 18/3/1 16/3/1 17/3/1
f 23/3/1 20/3/1 19/3/1
f 24/3/1 20/3/1 23/3/1
f 25/7/1 22/7/1 21/7/1
f 26/7/1 22/7/1 25/7/1
f 33/3/1 28/3/1 27/3/1
f 34/3/1 28/3/1 33/3/1
f 35/7/1 30/7/1 29/7/1
f 36/7/1 30/7/1 35/7/1
f 37/7/1 32/7/1 31/7/1
f 38/7/1 32/7/1 37/7/1
f 41/3/1 40/3/1 39/3/1
f 42/3/1 40/3/1 41/3/1
f 47/3/1 44/3/1 43/3/1
f 48/3/1 44/3/1 47/3/1
f 49/7/1 46/7/1 45/7/1
f 50/7/1 46/7/1 49/7/1
f 53/3/1 52/3/1 51/3/1
f 54/3/1 52/3/1 53/3/1
f 55/2/2 56/2/2 57/2/2
f 57/2/2 56/2/2 58/2/2
f 59/2/2 60/2/2 61/2/2
f 61/2/2 60/2/2 62/2/2
f 63/2/2 64/2/2 65/2/2
f 65/2/2 64/2/2 66/2/2
f 67/2/2 68/2/2 69/2/2
f 69/2/2 68/2/2 70/2/2
f 71/2/2 72/2/2 73/2/2
f 73/2/2 72/2/2 74/2/2
f 75/2/2 76/2/2 77/2/2
f 77/2/2 76/2/2 78/2/2
f 79/2/2 80/2/2 83/2/2
f 83/2/2 80/2/2 84/2/2
f 81/7/2 82/7/2 85/7/2
f 85/7/2 82/7/2 86/7/2
f 87/2/2 88/2/2 91/2/2
f 91/2/2 88/2/2 92/2/2
f 89/7/2 90/7/2 93/7/2
f 93/7/2 90/7/2 94/7/2
f 95/7/2 96/7/2 97/7/2
f 97/7/2 96/7/2 98/7/2
f 99/7/2 100/7/2 103/7/2
f 100/2/2 101/2/2 104/2/2
f 103/7/2 100/7/2 104/7/2
f 101/1/2 102/1/2 105/1/2
f 104/2/2 101/2/2 105/2/2
f 105/1/2 102/1/2 106/1/2
f 109/1/3 108/1/3 107/1/3
f 110/1/3 108/1/3 109/1/3
f 111/2/3 110/2/3 109/2/3
f 112/2/3 110/2/3 111/2/3
f 115/2/3 114/2/3 113/2/3
f 116/2/3 114/2/3 115/2/3
f 119/2/3 118/2/3 117/2/3
f 120/2/3 118/2/3 119/2/3
f 123/2/3 122/2/3 121/2/3
f 124/2/3 122/2/3 123/2/3
f 127/2/3 126/2/3 125/2/3
f 128/2/3 126/2/3 127/2/3
f 131/2/3 130/2/3 129/2/3
f 132/2/3 130/2/3 131/2/3
f 135/2/3 134/2/3 133/2/3
f 136/2/3 134/2/3 135/2/3
f 139/2/3 138/2/3 137/2/3
f 140/2/3 138/2/3 139/2/3
f 143/2/3 142/2/3 141/2/3
f 144/2/3 142/2/3 143/2/3
f 145/7/3 144/7/3 143/7/3
f 146/7/3 144/7/3 145/7/3
f 149/7/3 148/7/3 147/7/3
f 150/7/3 148/7/3 149/7/3
f 153/7/3 152/7/3 151/7/3
f 154/7/3 152/7/3 153/7/3
f 157/7/3 156/7/3 155/7/3
f 158/7/3 156/7/3 157/7/3
f 161/7/3 160/7/3 159/7/3
f 162/7/3 160/7/3 161/7/3
f 163/3/4 164/3/4 165/3/4
f 165/3/4 164/3/4 166/3/4
f 167/3/4 168/3/4 169/3/4
f 169/3/4 168/3/4 170/3/4
f 171/3/4 172/3/4 173/3/4
f 173/3/4 172/3/4 174/3/4
f 175/3/4 176/3/4 177/3/4
f 177/3/4 176/3/4 178/3/4
f 179/3/4 180/3/4 181/3/4
f 181/3/4 180/3/4 182/3/4
f 183/3/4 184/3/4 185/3/4
f 185/3/4 184/3/4 186/3/4
f 187/3/4 188/3/4 189/3/4
f 189/3/4 188/3/4 190/3/4
f 191/3/4 192/3/4 193/3/4
f 193/3/4 192/3/4 194/3/4
f 195/7/4 196/7/4 197/7/4
f 197/7/4 196/7/4 198/7/4
f 197/3/4 198/3/4 199/3/4
f 199/3/4 198/3/4 200/3/4
f 199/1/4 200/1/4 201/1/4
f 201/1/4 200/1/4 202/1/4
f 203/7/4 204/7/4 205/7/4
f 205/7/4 204/7/4 206/7/4
f 207/7/4 208/7/4 209/7/4
f 209/7/4 208/7/4 210/7/4
f 211/7/4 212/7/4 213/7/4
f 213/7/4 212/7/4 214/7/4
f 218/1/5 216/1/5 215/1/5
f 219/2/5 217/2/5 216/2/5
f 219/1/5 216/1/5 218/1/5
f 220/2/5 217/2/5 219/2/5
f 222/3/5 219/3/5 218/3/5
f 223/4/5 220/4/5 219/4/5
f 223/3/5 219/3/5 222/3/5
f 224/2/5 221/2/5 220/2/5
f 224/4/5 220/4/5 223/4/5
f 225/2/5 221/2/5 224/2/5
f 227/3/5 224/3/5 223/3/5
f 228/1/5 225/1/5 224/1/5
f 228/3/5 224/3/5 227/3/5
f 229/2/5 226/2/5 225/2/5
f 229/1/5 225/1/5 228/1/5
f 230/2/5 226/2/5 229/2/5
f 232/3/5 229/3/5 228/3/5
f 233/4/5 230/4/5 229/4/5
f 233/3/5 229/3/5 232/3/5
f 234/2/5 231/2/5 230/2/5
f 234/4/5 230/4/5 233/4/5
f 235/2/5 231/2/5 234/2/5
f 237/3/5 234/3/5 233/3/5
f 238/1/5 235/1/5 234/1/5
f 238/3/5 234/3/5 237/3/5
f 239/2/5 236/2/5 235/2/5
f 239/1/5 235/1/5 238/1/5
f 240/2/5 236/2/5 239/2/5
f 242/3/5 239/3/5 238/3/5
f 243/4/5 240/4/5 239/4/5
f 243/3/5 239/3/5 242/3/5
f 244/2/5 241/2/5 240/2/5
f 244/4/5 240/4/5 243/4/5
f 245/2/5 241/2/5 244/2/5
f 247/3/5 244/3/5 243/3/5
f 248/1/5 245/1/5 244/1/5
f 248/3/5 244/3/5 247/3/5
f 249/2/5 246/2/5 245/2/5
f 249/1/5 245/1/5 248/1/5
f 250/2/5 246/2/5 249/2/5
f 252/3/5 249/3/5 248/3/5
f 253/4/5 250/4/5 249/4/5
f 253/3/5 249/3/5 252/3/5
f 254/2/5 251/2/5 250/2/5
f 254/4/5 250/4/5 253/4/5
f 255/2/5 251/2/5 254/2/5
f 258/3/5 254/3/5 253/3/5
f 259/1/5 255/1/5 254/1/5
f 259/3/5 254/3/5 258/3/5
f 260/2/5 256/2/5 255/2/5
f 260/1/5 255/1/5 259/1/5
f 261/7/5 257/7/5 256/7/5
f 261/2/5 256/2/5 260/2/5
f 262/7/5 257/7/5 261/7/5
f 265/3/5 260/3/5 259/3/5
f 266/5/5 262/5/5 261/5/5
f 266/5/5 261/5/5 260/5/5
f 266/3/5 260/3/5 265/3/5
f 267/5/5 262/5/5 266/5/5
f 268/7/5 263/7/5 262/7/5
f 268/5/5 262/5/5 267/5/5
f 269/7/5 263/7/5 268/7/5
f 271/7/5 265/7/5 264/7/5
f 272/5/5 267/5/5 266/5/5
f 272/5/5 266/5/5 265/5/5
f 272/7/5 265/7/5 271/7/5
f 273/5/5 267/5/5 272/5/5
f 274/4/5 268/4/5 267/4/5
f 274/5/5 267/5/5 273/5/5
f 275/2/5 269/2/5 268/2/5
f 275/4/5 268/4/5 274/4/5
f 276/2/5 269/2/5 275/2/5
f 278/7/5 271/7/5 270/7/5
f 279/7/5 271/7/5 278/7/5
f 280/5/5 273/5/5 272/5/5
f 280/7/5 271/7/5 279/7/5
f 280/5/5 272/5/5 271/5/5
f 281/5/5 273/5/5 280/5/5
f 282/7/5 274/7/5 273/7/5
f 282/5/5 273/5/5 281/5/5
f 283/3/5 275/3/5 274/3/5
f 283/7/5 274/7/5 282/7/5
f 284/1/5 276/1/5 275/1/5
f 284/3/5 275/3/5 283/3/5
f 285/1/5 276/1/5 284/1/5
f 286/7/5 278/7/5 277/7/5
f 287/6/5 279/6/5 278/6/5
f 287/7/5 278/7/5 286/7/5
f 288/5/5 281/5/5 280/5/5
f 288/6/5 279/6/5 287/6/5
f 288/5/5 280/5/5 279/5/5
f 289/7/5 282/7/5 281/7/5
f 289/5/5 281/5/5 288/5/5
f 290/7/5 282/7/5 289/7/5
f 291/7/5 288/7/5 287/7/5
f 291/7/5 289/7/5 288/7/5
f 292/7/5 289/7/5 291/7/5
f 293/1/6 294/1/6 296/1/6
f 294/2/6 295/2/6 297/2/6
f 296/1/6 294/1/6 297/1/6
f 297/2/6 295/2/6 298/2/6
f 296/3/6 297/3/6 300/3/6
f 297/4/6 298/4/6 301/4/6
f 300/3/6 297/3/6 301/3/6
f 298/2/6 299/2/6 302/2/6
f 301/4/6 298/4/6 302/4/6
f 302/2/6 299/2/6 303/2/6
f 301/3/6 302/3/6 305/3/6
f 302/1/6 303/1/6 306/1/6
f 305/3/6 302/3/6 306/3/6
f 303/2/6 304/2/6 307/2/6
f 306/1/6 303/1/6 307/1/6
f 307/2/6 304/2/6 308/2/6
f 306/3/6 307/3/6 310/3/6
f 307/4/6 308/4/6 311/4/6
f 310/3/6 307/3/6 311/3/6
f 308/2/6 309/2/6 312/2/6
f 311/4/6 308/4/6 312/4/6
f 312/2/6 309/2/6 313/2/6
f 311/3/6 312/3/6 315/3/6
f 312/1/6 313/1/6 316/1/6
f 315/3/6 312/3/6 316/3/6
f 313/2/6 314/2/6 317/2/6
f 316/1/6 313/1/6 317/1/6
f 317/2/6 314/2/6 318/2/6
f 316/3/6 317/3/6 320/3/6
f 317/4/6 318/4/6 321/4/6
f 320/3/6 317/3/6 321/3/6
f 318/2/6 319/2/6 322/2/6
f 321/4/6 318/4/6 322/4/6
f 322/2/6 319/2/6 323/2/6
f 321/3/6 322/3/6 325/3/6
f 322/1/6 323/1/6 326/1/6
f 325/3/6 322/3/6 326/3/6
f 323/2/6 324/2/6 327/2/6
f 326/1/6 323/1/6 327/1/6
f 327/2/6 324/2/6 328/2/6
f 326/3/6 327/3/6 330/3/6
f 327/4/6 328/4/6 331/4/6
f 330/3/6 327/3/6 331/3/6
f 328/2/6 329/2/6 332/2/6
f 331/4/6 328/4/6 332/4/6
f 332/2/6 329/2/6 333/2/6
f 331/3/6 332/3/6 336/3/6
f 332/1/6 333/1/6 337/1/6
f 336/3/6 332/3/6 337/3/6
f 333/2/6 334/2/6 338/2/6
f 337/1/6 333/1/6 338/1/6
f 334/7/6 335/7/6 339/7/6
f 338/2/6 334/2/6 339/2/6
f 339/7/6 335/7/6 340/7/6
f 337/3/6 338/3/6 343/3/6
f 339/5/6 340/5/6 344/5/6
f 338/5/6 339/5/6 344/5/6
f 343/3/6 338/3/6 344/3/6
f 344/5/6 340/5/6 345/5/6
f 340/7/6 341/7/6 346/7/6
f 345/5/6 340/5/6 346/5/6
f 346/7/6 341/7/6 347/7/6
f 342/7/6 343/7/6 349/7/6
f 344/5/6 345/5/6 350/5/6
f 343/5/6 344/5/6 350/5/6
f 349/7/6 343/7/6 350/7/6
f 350/5/6 345/5/6 351/5/6
f 345/4/6 346/4/6 352/4/6
f 351/5/6 345/5/6 352/5/6
f 346/2/6 347/2/6 353/2/6
f 352/4/6 346/4/6 353/4/6
f 353/2/6 347/2/6 354/2/6
f 348/7/6 349/7/6 356/7/6
f 356/7/6 349/7/6 357/7/6
f 350/5/6 351/5/6 358/5/6
f 357/7/6 349/7/6 358/7/6
f 349/5/6 350/5/6 358/5/6
f 358/5/6 351/5/6 359/5/6
f 351/7/6 352/7/6 360/7/6
f 359/5/6 351/5/6 360/5/6
f 352/3/6 353/3/6 361/3/6
f 360/7/6 352/7/6 361/7/6
f 353/1/6 354/1/6 362/1/6
f 361/3/6 353/3/6 362/3/6
f 362/1/6 354/1/6 363/1/6
f 355/7/6 356/7/6 364/7/6
f 356/6/6 357/6/6 365/6/6
f 364/7/6 356/7/6 365/7/6
f 358/5/6 359/5/6 366/5/6
f 365/6/6 357/6/6 366/6/6
f 357/5/6 358/5/6 366/5/6
f 359/7/6 360/7/6 367/7/6
f 366/5/6 359/5/6 367/5/6
f 367/7/6 360/7/6 368/7/6
f 365/7/6 366/7/6 369/7/6
f 366/7/6 367/7/6 369/7/6
f 369/7/6 367/7/6 370/7/6
